<?xml version="1.0" standalone="no"?>
<!DOCTYPE svg PUBLIC "-//W3C//DTD SVG 20010904//EN"
 "http://www.w3.org/TR/2001/REC-SVG-20010904/DTD/svg10.dtd">
<svg version="1.0" xmlns="http://www.w3.org/2000/svg"
 width="1667.000000pt" height="500.000000pt" viewBox="0 0 1667.000000 500.000000"
 preserveAspectRatio="xMidYMid meet">

<g transform="translate(0.000000,500.000000) scale(0.100000,-0.100000)"
fill="#000000" stroke="none">
<path d="M12 4537 c-7 -8 -10 -86 -9 -222 l2 -210 875 -6 c951 -6 918 -4 1047
-65 141 -67 213 -200 213 -394 -1 -144 -40 -240 -134 -327 -68 -63 -143 -102
-261 -135 -80 -23 -83 -23 -912 -26 l-833 -3 0 -224 0 -225 860 0 c720 0 877
2 970 15 275 39 490 139 630 293 68 75 149 228 174 327 40 161 45 379 12 526
-85 383 -385 612 -886 675 -159 20 -1732 21 -1748 1z"/>
<path d="M4710 4535 c-256 -44 -422 -190 -492 -430 -22 -78 -23 -92 -23 -475
0 -351 2 -403 19 -470 63 -255 223 -401 491 -445 77 -13 237 -15 1125 -13
l1035 3 0 220 0 220 -960 5 -960 5 -46 27 c-84 49 -84 52 -81 438 1 192 6 348
12 366 12 36 53 77 95 96 24 10 224 14 988 16 l957 3 -2 222 -3 222 -1040 1
c-810 2 -1057 -1 -1115 -11z"/>
<path d="M8535 4527 c-4 -12 -2 -353 2 -757 l8 -735 27 -58 c55 -116 130 -182
263 -230 123 -44 177 -47 820 -47 664 0 667 0 784 60 146 73 245 167 494 464
605 724 774 925 964 1147 78 92 139 170 136 173 -4 3 -161 6 -351 6 l-344 0
-30 -32 c-17 -18 -128 -148 -247 -288 -467 -552 -748 -878 -802 -931 -126
-125 -295 -163 -677 -153 -255 7 -328 37 -389 162 -32 65 -29 9 -41 797 l-7
440 -302 3 -303 2 -5 -23z"/>
<path d="M13120 3833 c0 -771 2 -793 57 -894 51 -94 153 -168 293 -210 74 -23
80 -23 733 -27 747 -3 718 -6 867 82 144 84 215 158 628 651 490 586 655 783
805 957 64 76 117 140 117 143 0 3 -159 5 -354 5 l-354 0 -268 -317 c-429
-508 -743 -871 -800 -928 -64 -65 -149 -107 -264 -131 -120 -26 -562 -25 -641
1 -71 24 -139 92 -170 170 l-24 60 -1 570 -1 570 -311 3 -312 2 0 -707z"/>
<path d="M1940 2361 c0 -4 17 -20 38 -33 103 -69 214 -195 282 -320 56 -104
87 -201 101 -316 21 -172 -19 -301 -126 -408 -66 -67 -157 -116 -285 -156
l-75 -23 -938 -3 -937 -3 0 -224 0 -225 965 0 c1095 0 1106 1 1335 77 332 111
530 347 580 691 16 108 8 345 -15 432 -9 36 -39 111 -67 168 -40 83 -66 120
-130 187 -44 47 -107 103 -140 125 l-60 40 -264 0 c-145 0 -264 -4 -264 -9z"/>
<path d="M4194 2356 c-3 -8 -4 -272 -2 -587 4 -549 5 -577 25 -651 67 -237
196 -376 423 -454 53 -18 102 -19 1140 -19 l1085 0 0 225 0 225 -905 5 -905 5
-50 23 c-87 40 -146 114 -174 219 -8 28 -11 198 -12 519 0 329 -3 482 -11 491
-16 20 -606 19 -614 -1z"/>
<path d="M9045 2359 c-208 -27 -377 -142 -461 -315 l-39 -79 -3 -658 -3 -657
308 2 308 3 5 565 c6 647 1 613 95 660 l50 25 345 0 c369 0 392 -3 495 -53 39
-19 181 -154 640 -613 l590 -589 354 0 353 0 -38 43 c-21 23 -297 314 -613
647 -317 333 -623 655 -680 715 -130 138 -188 187 -272 230 -84 43 -157 62
-294 75 -132 12 -1040 11 -1140 -1z"/>
<path d="M13560 2345 c-156 -35 -313 -152 -379 -284 -59 -117 -61 -135 -61
-803 1 -565 2 -607 18 -612 9 -2 149 -1 310 2 l293 7 1 400 c1 220 4 477 7
572 7 198 12 210 97 253 l49 25 345 0 c330 0 348 -1 416 -22 43 -14 95 -40
130 -66 33 -24 310 -297 617 -606 l559 -561 353 2 354 3 -81 85 c-45 47 -118
123 -162 170 -44 47 -125 132 -181 190 -55 58 -143 150 -195 205 -309 323
-525 550 -595 625 -231 246 -308 316 -385 353 -154 73 -125 71 -820 73 -511 2
-637 0 -690 -11z"/>
</g>
</svg>
