<svg width="775" height="250" xmlns="http://www.w3.org/2000/svg" xml:space="preserve" version="1.1">

 <g>
  <title>Layer 1</title>
  <g id="svg_60">
   <g id="Segl">
    <g id="svg_1">
     <path id="svg_2" fill="#B60000" d="m128.65998,4.995c-66.26,0 -119.99,53.74 -119.99,120.01s53.73,120 119.99,120c66.28,0 120.01,-53.73 120.01,-120s-53.73,-120.01 -120.01,-120.01z" class="st0"/>
     <g id="svg_3">
      <path id="svg_4" fill="#FFFFFF" d="m12.85998,124.995c0,-27.98 9.92,-53.65 26.44,-73.67l0,0c21.24,-25.74 53.39,-42.15 89.36,-42.15l0,0c63.97,0 115.81,51.86 115.82,115.82l0,0c0,63.95 -51.85,115.81 -115.82,115.81l0,0c-63.95,0 -115.8,-51.85 -115.8,-115.81l0,0zm1.72,0c0,31.51 12.77,60.02 33.42,80.67l0,0c20.65,20.65 49.16,33.42 80.66,33.42l0,0c31.51,0 60.03,-12.77 80.68,-33.42l0,0c20.65,-20.65 33.42,-49.16 33.42,-80.67l0,0c0,-31.5 -12.77,-60.02 -33.42,-80.67l0,0c-20.65,-20.65 -49.17,-33.42 -80.68,-33.42l0,0c-35.44,0 -67.1,16.16 -88.03,41.52l0,0l0,0c-16.28,19.73 -26.05,45.01 -26.05,72.57l0,0z" class="st1"/>
     </g>
     <g id="svg_5">
      <path id="svg_6" fill="#FFFFFF" d="m38.29998,171.975c0.02,-1.51 1.26,-2.72 2.77,-2.7c1.51,0.02 2.73,1.26 2.71,2.77c-0.02,1.52 -1.26,2.73 -2.77,2.71c-1.51,-0.02 -2.72,-1.26 -2.71,-2.78z" class="st1"/>
      <path id="svg_7" fill="#FFFFFF" d="m212.59998,173.615c0.02,-1.51 1.26,-2.72 2.77,-2.7c1.51,0.02 2.73,1.26 2.71,2.77c-0.02,1.51 -1.26,2.73 -2.77,2.71c-1.51,-0.03 -2.73,-1.27 -2.71,-2.78z" class="st1"/>
     </g>
     <g id="svg_8">
      <g id="svg_9">
       <g id="svg_10">
        <path id="svg_11" fill="#FFFFFF" d="m207.87998,91.725c-4.33,-10.22 -10.51,-19.39 -18.39,-27.27c-7.87,-7.86 -17.04,-14.05 -27.25,-18.37c-10.57,-4.46 -21.81,-6.72 -33.37,-6.72c-11.58,0 -22.81,2.26 -33.39,6.72c-10.21,4.32 -19.37,10.52 -27.26,18.37c-7.87,7.88 -14.05,17.04 -18.36,27.27c-4.48,10.56 -6.75,21.8 -6.75,33.36c0,11.59 2.27,22.83 6.75,33.39c4.31,10.2 10.49,19.38 18.36,27.25c7.88,7.87 17.04,14.06 27.26,18.38c3.2,1.36 6.46,2.5 9.77,3.45c0.03,0.01 0.06,0.02 0.09,0.03c1.66,0.52 3.35,0.93 5.05,1.27c6.03,1.32 12.2,1.99 18.48,1.99c3.82,0 7.61,-0.25 11.35,-0.74c0.01,0 0.02,0 0.03,0c2.18,-0.13 3.72,-0.46 4.73,-0.77c5.9,-1.12 11.68,-2.86 17.26,-5.22c10.21,-4.32 19.38,-10.51 27.25,-18.38l-0.61,-0.61l0.61,0.61c7.88,-7.87 14.05,-17.05 18.38,-27.25c4.46,-10.56 6.73,-21.8 6.73,-33.39c0,-11.57 -2.26,-22.8 -6.72,-33.37zm-132.21,98.41c-0.13,-0.11 -0.35,-0.47 -0.24,-0.75c0.05,-0.11 0.11,-0.24 0.18,-0.36c0.37,-0.69 0.97,-1.49 1.48,-2.1c0.89,1.92 3.04,5.63 7.58,9.64c-3.14,-1.94 -6.14,-4.08 -9,-6.43zm-0.71,-50.84c1.76,1.72 2.07,3.21 2.08,4.22c0,0.41 -0.06,0.73 -0.11,0.95c-0.03,0.11 -0.05,0.19 -0.07,0.24c0,0.01 -0.01,0.02 -0.01,0.03c-0.08,0.12 -0.77,1.42 -2.74,1.42c-0.3,0 -0.65,-0.03 -1.03,-0.11c-3.33,-0.65 -6.63,-1.94 -9.35,-2.28c-0.04,-0.01 -0.1,0 -0.15,-0.01l6.54,-8.97c2.14,1.97 3.99,3.69 4.84,4.51zm-13.7,-14.95l42.62,-43.1l-25.55,59.99c-0.38,-1 -1.05,-2.1 -2.17,-3.18c-2.39,-2.32 -12.24,-11.29 -14.9,-13.71zm11.48,23.39c0.48,0.09 0.94,0.14 1.36,0.14c1.52,0.01 2.62,-0.57 3.3,-1.16c0.68,-0.59 0.96,-1.17 0.99,-1.24l0,-0.01c0,0 0,-0.01 0,-0.01c0,-0.01 0.01,-0.02 0.02,-0.05l0.05,-0.11l26.21,-61.3c0.06,0.41 0.18,1.2 0.29,1.58c0.41,6.88 1.99,11.71 3.65,15.41c0.96,2.14 1.94,3.78 2.7,4.93c0.38,0.58 0.71,1.04 0.96,1.37c0.08,0.11 0.16,0.21 0.22,0.29l-6.11,21.11c-0.1,0.33 0.02,0.7 0.29,0.91l1.46,1.16c0,0 0.18,0.17 0.1,0.49c-0.09,0.32 -6.8,25.1 -6.8,25.1l-21.32,24.48c-1.58,-1.31 -6.2,-5.59 -12.32,-15.1c-5.33,-8.27 -6.92,-13.49 -6.91,-16.46c0,-1.48 0.37,-2.38 0.81,-2.94c0.01,-0.01 0.01,-0.01 0.02,-0.02l0.02,-0.03c0.03,-0.03 0.05,-0.07 0.08,-0.1c0.49,-0.54 1.09,-0.73 1.54,-0.73c0.06,0 0.11,0 0.16,0.01c2.37,0.3 5.72,1.58 9.23,2.28zm45.21,-90.22c-0.15,-0.44 -0.62,-0.68 -1.06,-0.54c0.38,-0.34 0.75,-0.66 1.11,-0.97l3.7,-0.48c0.47,-0.06 0.8,-0.5 0.74,-0.97c-0.06,-0.47 -0.49,-0.8 -0.97,-0.74l-0.56,0.08c1.16,-0.68 2.34,-1.23 3.32,-1.63c0.66,-0.27 1.22,-0.48 1.62,-0.62c0.4,-0.13 0.61,-0.2 0.62,-0.2c0.46,-0.13 0.72,-0.61 0.58,-1.07c-0.14,-0.45 -0.62,-0.71 -1.07,-0.58c-0.03,0.01 -1.47,0.43 -3.33,1.28c0.27,-0.39 0.18,-0.92 -0.21,-1.2c-0.39,-0.27 -0.93,-0.18 -1.2,0.21l-1.98,2.81c-0.18,0.12 -0.36,0.23 -0.53,0.35c-0.25,0.18 -0.53,0.39 -0.83,0.63l0.2,-0.39c0.22,-0.42 0.05,-0.94 -0.37,-1.16c-0.42,-0.22 -0.94,-0.05 -1.16,0.37l-2.17,4.22c-0.54,0.5 -1.04,0.97 -1.47,1.38c0.07,-2.25 0.67,-6.22 3.2,-8.11c2.48,-1.9 4.54,-2.31 6.26,-2.31c1.01,0 1.9,0.15 2.69,0.27c0.37,0.05 1.7,0.37 2.85,0.66c1.16,0.3 2.21,0.57 2.21,0.58l0.22,0.03c1.27,0.01 1.9,0.33 2.24,0.67c0.34,0.34 0.47,0.8 0.48,1.31c0.01,0.43 -0.18,0.92 -0.39,1.29c-0.08,0.14 -0.15,0.24 -0.21,0.34l-6.43,0.71c-0.23,0.03 -0.45,0.15 -0.59,0.33l-4.05,5.34l-1.98,0.01l-0.18,0.02c-0.08,0.02 -0.44,0.1 -0.84,0.43c-0.41,0.32 -0.81,0.97 -0.79,1.8c-0.01,1.61 0.55,2.71 1.16,3.35c0.06,0.07 0.13,0.13 0.19,0.19l-2.64,2.64c-0.41,-0.11 -1.08,-0.34 -1.7,-0.78c-0.8,-0.56 -1.53,-1.39 -1.77,-2.84c-0.13,-0.84 -0.18,-1.53 -0.18,-2.08c0,-0.58 0.05,-1 0.11,-1.3c0.01,-0.01 0.02,-0.01 0.03,-0.02c0,0 0.39,-0.38 0.99,-0.96l3.64,-1.24c0.41,-0.17 0.65,-0.66 0.5,-1.11zm13.17,6.58c0,0 0.01,0.27 -0.21,0.4c-0.23,0.13 -0.38,0.35 -0.43,0.61c-0.04,0.26 0.07,0.5 0.21,0.71c0.03,0.05 0.04,0.16 -0.02,0.27c-0.06,0.1 -0.17,0.3 -0.17,0.3c-0.12,0.21 -0.15,0.46 -0.07,0.69c0,0 0,0 0.01,0.03c0.03,0.1 0.09,0.38 0.09,0.68c0,0.17 -0.13,0.65 -0.47,0.79c-0.32,0.14 -0.86,0.25 -1.58,0.27l-1.82,-0.04c-0.42,-0.01 -0.79,0.29 -0.86,0.7c-0.01,0.04 -0.05,0.27 -0.05,0.63c0,0.47 0.07,1.18 0.45,1.9c0.14,0.28 0.35,0.55 0.6,0.8c0,0 0,0.01 0.01,0.01l0,0l3.06,3.43l-7.94,0.54l-5.41,-4.23c0.27,-0.13 0.42,-0.21 0.42,-0.21c0.29,-0.14 0.48,-0.44 0.48,-0.77l0,-2.5l3.47,-3.48c0.21,-0.21 0.3,-0.53 0.23,-0.82c-0.08,-0.3 -0.3,-0.53 -0.59,-0.61l0,0c-0.16,-0.11 -1.2,-0.44 -1.23,-2.57c0.01,-0.35 0.1,-0.39 0.17,-0.48c0.03,-0.02 0.06,-0.04 0.08,-0.06l2.26,-0.02c0.27,0 0.52,-0.13 0.68,-0.34c0,0 3.61,-4.78 3.86,-5.08c0.25,-0.31 0.63,-0.34 0.63,-0.34l4.89,-0.53c0,0 0.25,-0.01 0.29,0.29c0.04,0.45 0.09,1 0.15,1.6c0.01,0.25 -0.15,0.34 -0.25,0.35c-0.62,0.02 -1.27,0.04 -1.96,0.06c-0.72,0.03 -1.51,0.36 -2.03,0.8c-0.39,0.32 -0.4,0.93 -0.04,1.28c0.2,0.19 0.63,0.26 1.1,0.4c0.59,0.18 1.25,0.4 1.58,0.3c0.42,-0.14 0.58,-0.51 0.61,-0.92c0.03,-0.45 0.3,-0.77 0.76,-0.77c0.19,0 0.31,0.16 0.33,0.32c0.09,0.86 0.24,1.94 0.3,2.56c0.03,0.3 0.05,0.58 0.07,0.82c0.01,0.31 -0.26,0.33 -0.4,0.35c-0.29,0.04 -0.51,0.04 -0.51,0.05c-0.23,0.01 -0.45,0.11 -0.6,0.29c-0.16,0.17 -0.23,0.4 -0.22,0.63l0.07,0.91zm-9.98,14.3c0.15,0.12 0.34,0.18 0.53,0.18c0.02,0 0.04,0 0.06,0l10.02,-0.68c0.33,-0.02 0.62,-0.23 0.74,-0.54c0.13,-0.3 0.06,-0.65 -0.15,-0.9l-1.8,-2.02c1.05,0.32 1.95,0.6 2.65,0.81c0.54,0.14 1.52,1 2.35,2.13c0.79,1.03 1.51,2.25 1.99,3.24c-0.35,1.78 -0.86,3.53 -1.4,5.29l-4.44,3.37l-9.67,-6.51c-0.49,-0.72 -2.74,-4 -4.9,-6.17c-1.15,-1.13 -2.77,-1.58 -4.39,-1.58c-0.3,0 -0.6,0.02 -0.9,0.05c0.42,-0.23 0.85,-0.46 1.26,-0.68c0.63,-0.33 1.24,-0.65 1.77,-0.93l6.28,4.94zm-8.43,-1.65c1.32,0 2.49,0.38 3.18,1.07c1.12,1.12 2.33,2.64 3.24,3.88c0.92,1.24 1.54,2.17 1.54,2.18c0.06,0.1 0.14,0.18 0.24,0.24l10.32,6.95c0.31,0.21 0.71,0.2 1,-0.03l13.14,-9.99l0.06,-0.05c0,0 0.29,-0.26 0.67,-0.58c0.38,-0.32 0.86,-0.7 1.15,-0.88c0.68,-0.45 3.58,-2.17 5.43,-2.22c0.16,-0.01 0.32,-0.01 0.47,-0.01c0.89,-0.01 1.54,0.15 1.87,0.37c0.31,0.22 0.45,0.4 0.48,1.05c0,1.05 0.02,2.6 0.02,2.6c0,0.42 0.3,0.7 0.71,0.77c0.32,0 0.76,0.09 0.76,0.59c0,0.57 -0.39,0.65 -0.57,0.68c-0.31,0.04 -0.61,0.08 -0.73,0.09l-0.81,0l-0.22,0.03c0,0 -1.11,0.29 -2.3,0.57c-0.59,0.14 -1.21,0.29 -1.71,0.39c-0.25,0.05 -0.47,0.1 -0.64,0.13c-0.08,0.01 -0.15,0.02 -0.2,0.03c-0.05,0.01 -0.06,0 -0.06,0.01c-0.76,0 -1.94,0.13 -1.96,0.13c-0.24,0.03 -0.47,0.16 -0.61,0.36c0,0.01 -1.46,2.07 -3.28,4.5c-1.82,2.43 -4.03,5.25 -5.44,6.66c-1.47,1.47 -2.68,2.58 -3.53,3.32c-0.26,0.23 -0.49,0.42 -0.68,0.58c-0.1,0.08 -0.33,0.19 -0.58,0.09c-1.26,-0.52 -3.95,-1.6 -7.19,-2.98c-4.52,-1.93 -10.12,-4.44 -14.36,-6.71c-0.84,-0.43 -2.34,-1.35 -3.58,-2.66c-0.13,-0.14 -0.26,-0.29 -0.39,-0.44c-0.04,-0.05 -0.08,-0.1 -0.12,-0.14c-0.1,-0.12 -0.19,-0.24 -0.28,-0.35c-0.07,-0.09 -0.13,-0.19 -0.2,-0.28c-0.06,-0.08 -0.11,-0.16 -0.16,-0.25c-0.06,-0.09 -0.12,-0.19 -0.18,-0.29c-0.02,-0.04 -0.04,-0.08 -0.07,-0.12c-0.12,-0.21 -0.22,-0.42 -0.31,-0.64c-0.01,-0.03 -0.03,-0.06 -0.04,-0.09c-0.05,-0.13 -0.1,-0.26 -0.14,-0.39c0,0 0,0 0,0c0,0 0,0 0,-0.01c-0.08,-0.23 -0.14,-0.47 -0.19,-0.71c-0.02,-0.1 -0.04,-0.21 -0.06,-0.31c-0.01,-0.08 -0.02,-0.16 -0.03,-0.24c-0.02,-0.2 -0.04,-0.4 -0.04,-0.61c0,-0.14 0.01,-0.27 0.02,-0.41c0.01,-0.11 0.02,-0.23 0.04,-0.35c0,-0.02 0,-0.04 0,-0.06c0.04,-0.28 0.1,-0.56 0.18,-0.85c0,0 0,0 0,0l0,0c0.05,-0.17 0.1,-0.35 0.17,-0.53c0,-0.01 0.01,-0.02 0.01,-0.03c0.06,-0.16 0.13,-0.34 0.2,-0.51c0.01,-0.02 0.02,-0.05 0.03,-0.07c0.07,-0.16 0.15,-0.32 0.24,-0.48c0.02,-0.03 0.04,-0.07 0.06,-0.11c0.11,-0.19 0.22,-0.39 0.34,-0.59l0,0c0.78,-1.33 3.03,-2.32 5.09,-2.3zm26.98,-13.13c0,-0.38 0.13,-0.44 0.2,-0.43c1.31,0.21 2.03,0.78 2.49,1.32c0.28,0.34 0.45,0.69 0.55,0.94c0.05,0.13 0.08,0.23 0.1,0.3c0.01,0.03 0.01,0.06 0.02,0.07l0,0c0.07,0.41 0.43,0.72 0.85,0.72l16.8,0c0.43,0 0.79,-0.31 0.85,-0.73c0.02,-0.08 0.15,-0.63 0.69,-1.14c0.45,-0.42 1.19,-0.88 2.53,-1.05c0.18,-0.04 0.21,0.14 0.21,0.3c0,1.78 -0.06,5.49 -0.06,10.87c0,4.38 1.13,7.92 2.21,11.42c1.09,3.51 2.13,6.98 2.13,11.42c0,2.37 -0.45,4.64 -1.33,6.7c-0.77,-0.43 -1.42,-0.69 -1.78,-0.79c-0.12,-0.03 -0.24,-0.05 -0.36,-0.05c-0.68,0.03 -1.12,0.33 -1.55,0.63c-0.42,0.34 -0.75,0.58 -0.99,1.12c-0.07,0.18 -0.1,0.36 -0.1,0.53c0.01,0.47 0.17,0.79 0.29,1.04c-0.18,0.15 -0.39,0.32 -0.6,0.51c-0.28,0.25 -0.57,0.52 -0.82,0.81c-0.25,0.29 -0.48,0.56 -0.62,0.98c-0.08,0.26 -0.13,0.53 -0.13,0.81c0,0.53 0.15,1.01 0.39,1.5c-2.61,1.51 -5.88,2.4 -9.82,2.41c-5.75,0 -9.86,-1.98 -12.6,-4.84c-2.03,-2.14 -3.29,-4.8 -3.8,-7.56c0.85,-0.72 2.34,-2.03 4.23,-3.92c0.32,-0.32 0.67,-0.7 1.04,-1.12c0.61,2.16 1.82,3.96 3.4,5.3c2.21,1.88 5.1,2.89 8.09,2.98c0.05,0.01 0.11,0.02 0.16,0.02c0.02,0 0.05,0 0.07,-0.01c0.07,0 0.14,0.01 0.21,0.01c6.47,-0.02 11.32,-5.75 11.33,-12.09c0,-2.85 -0.67,-4.84 -1.29,-7.91c-0.63,-3.08 -1.25,-7.36 -1.25,-14.89c0,-0.23 -0.09,-0.45 -0.25,-0.61c-0.16,-0.16 -0.38,-0.25 -0.61,-0.25l-16.59,0c-0.23,0 -0.45,0.09 -0.61,0.25c-0.16,0.16 -0.25,0.38 -0.25,0.61c0,5.39 -0.35,8.86 -0.79,11.44l-3.9,2.96c0.31,-1.12 0.59,-2.26 0.81,-3.42c0.02,-0.05 0.02,-0.1 0.03,-0.15c0.28,-1.5 0.45,-3.04 0.46,-4.63c0,-5.7 -0.02,-10.22 -0.04,-12.38zm23.92,47.67c-0.47,-0.66 -0.62,-1.1 -0.61,-1.39c0,-0.1 0.01,-0.19 0.05,-0.3l0,0c0.07,-0.16 0.58,-0.71 1.04,-1.1c0.46,-0.41 0.88,-0.72 0.88,-0.72c0.24,-0.15 0.4,-0.54 0.38,-0.77c-0.01,-0.34 -0.1,-0.46 -0.16,-0.6c-0.06,-0.12 -0.12,-0.23 -0.17,-0.32c-0.06,-0.13 -0.1,-0.42 0.16,-0.67c0.29,-0.3 0.71,-0.18 0.79,-0.14c0.32,0.13 0.84,0.37 1.35,0.67c0.75,0.44 1.51,1.05 1.78,1.57c0.28,0.48 0.51,1.12 0.5,1.55c0,0.29 -0.12,0.5 -0.26,0.66c-0.28,0.32 -2.81,2.44 -3.07,2.6c-0.27,0.19 -1.35,0.65 -2.27,0.99c-0.27,0.1 -0.53,0.19 -0.76,0.28c-0.32,0.13 -0.37,-0.08 -0.37,-0.08s-0.06,-0.19 0.06,-0.31c0.15,-0.12 0.29,-0.25 0.43,-0.4c0.15,-0.2 0.38,-0.39 0.41,-0.93c0.03,-0.18 -0.03,-0.41 -0.16,-0.59zm2.53,59.79c0,0 0.03,0.25 -0.17,0.37c-0.2,0.11 -6.26,3.51 -6.26,3.51l-0.7,-60.5c0.69,-0.22 1.35,-0.48 1.98,-0.77l5.15,57.39zm-27.73,27.97c0,0 2.23,2.89 2.32,3.02c0.09,0.13 0.02,0.28 -0.04,0.33c-3.38,2.76 -8.86,4.69 -15.13,5.38c0.99,-4.55 4.79,-22.48 7.62,-40.74c2.91,-18.82 4.2,-36.69 4.45,-40.41c0,0 2.26,-0.15 2.66,-0.19c0.39,-0.04 0.44,0.19 0.44,0.43c-0.01,0.24 -2.48,71.6 -2.48,71.6c-0.02,0.23 0.04,0.42 0.16,0.58zm-30.04,-71.02c0,0 5.6,-19.36 5.68,-19.62c0.07,-0.26 0.33,-0.33 0.33,-0.33s4.1,-1.15 4.75,-1.36c0.65,-0.21 1.73,-0.29 1.73,-0.29l14.09,-0.86c0.74,1.65 1.75,3.21 3.05,4.58c1.14,1.21 2.51,2.26 4.09,3.11c0,0 -0.03,10.72 -0.03,10.92c0,0.2 -0.1,0.43 -0.55,0.47c-0.45,0.04 -14.17,0.99 -17.59,1.24c-0.49,0.03 -1.07,0.12 -1.59,0.26c-0.52,0.15 -12.47,3.42 -12.47,3.42s-0.41,0.06 -0.61,-0.09c-0.2,-0.16 -0.31,-0.25 -0.68,-0.54c-0.37,-0.3 -0.2,-0.91 -0.2,-0.91zm5.3,-21.74c-1.36,-1.87 -5.32,-7.41 -6.66,-17.52c0.09,0.11 0.19,0.21 0.28,0.31c1.43,1.5 3.06,2.5 4.03,3c8.63,4.62 22.48,10.08 22.5,10.09c0.01,0 0.02,0 0.03,0.01c0.12,0.58 0.28,1.14 0.47,1.71l-13,0.79c0,0 -1.53,0.07 -2.63,0.38c-1.33,0.37 -4.37,1.24 -4.57,1.31c-0.26,0.07 -0.41,-0.02 -0.45,-0.08zm28.79,19.92l0.63,-0.13c0.4,-0.08 0.69,-0.44 0.69,-0.84l0.03,-11.17c2.3,0.93 4.97,1.46 8.01,1.46c0.01,0 0.02,0 0.03,0c1.95,0 3.77,-0.22 5.45,-0.6l0.8,69.21l0,0.04c0,0 0,0.05 0,0.17c0.01,0.71 -0.18,3.19 -2.21,4.65c-2.52,1.84 -8.16,4.77 -15.78,4.97l2.35,-67.76zm-0.34,-31.52c2.01,-2.47 4.23,-5.5 5.48,-7.22l0,14.37c-0.86,-0.4 -1.66,-0.9 -2.36,-1.5c-1.63,-1.39 -2.77,-3.26 -3.12,-5.65zm7.2,7.78l0,-16.13c0.15,-0.01 0.3,-0.01 0.42,-0.01c0.35,-0.01 0.71,-0.09 1.26,-0.2c0.16,-0.04 0.33,-0.07 0.51,-0.11l0,16.86c-0.75,-0.08 -1.48,-0.21 -2.19,-0.41zm3.91,0.43l0,-17.3c0.79,-0.19 1.48,-0.37 1.74,-0.43l0.32,0l0,17.35c-0.66,0.21 -1.34,0.34 -2.06,0.38zm5.35,-21.21c-0.1,-0.31 -0.29,-0.77 -0.88,-0.97c-0.15,-0.04 -0.32,-0.09 -0.47,-0.12c0,-0.54 -0.01,-1.3 -0.01,-1.89c0.01,-0.41 -0.06,-0.81 -0.2,-1.17l0,-6.93l2.7,0c0.04,7.1 0.67,11.32 1.28,14.38c0.65,3.19 1.26,5.02 1.25,7.57c0,2.74 -1.05,5.35 -2.79,7.26c-0.71,0.79 -1.54,1.45 -2.45,1.96l0,-16.75c0.06,-0.01 0.13,-0.02 0.18,-0.02c0.08,-0.01 0.16,-0.02 0.21,-0.02c0.05,0 0.07,0 0.07,0c0.32,0 0.55,-0.16 0.66,-0.27c0.37,-0.41 0.36,-0.65 0.46,-0.98c0.07,-0.32 0.1,-0.68 0.11,-1.04c0,-0.35 -0.02,-0.67 -0.12,-1.01zm-3.29,-11.08l0,5.29c-0.62,-0.23 -1.31,-0.31 -2.06,-0.32l0,-4.97l2.06,0zm-3.78,0l0,5.14c-0.75,0.16 -1.5,0.42 -2.19,0.72l0,-5.86l2.19,0zm-3.91,0l0,6.72c-0.58,0.32 -1.02,0.6 -1.27,0.75c-0.78,0.49 -1.83,1.43 -2.03,1.61l0,0.01c0.3,-2.3 0.52,-5.19 0.55,-9.09l2.75,0zm-68.17,113.64c0.22,-0.25 23.43,-26.9 23.43,-26.9c0.09,-0.1 0.15,-0.21 0.18,-0.34c0,0 6.87,-25.35 6.92,-25.52c0.05,-0.18 0.23,-0.23 0.23,-0.23s12.18,-3.33 12.64,-3.47c0.47,-0.13 1.14,-0.19 1.14,-0.19l6.76,-0.47c-0.08,0.79 -0.22,2.06 -0.44,3.69c-1.15,8.57 -4.66,27.05 -13.22,37.12c-12.75,15.07 -30.4,16.61 -37.01,16.61c-0.15,0 -0.29,0 -0.42,0c-0.26,-0.01 -0.43,-0.05 -0.21,-0.3zm-0.42,2c0.31,0.01 0.66,0.01 1.04,0.01c6.84,0 25.05,-1.57 38.32,-17.21c10.92,-12.97 13.66,-37.71 14.09,-42.04l3.42,-0.24c-0.12,1.77 -0.42,5.97 -0.96,11.64c-0.71,7.61 -1.83,17.85 -3.46,28.38c-1.63,10.53 -3.59,20.97 -5.14,28.77c-1.15,5.77 -2.07,10.09 -2.47,11.95c-0.04,0.17 -0.25,0.48 -0.65,0.48c-0.95,0 -1.9,0.09 -2.87,0.08c-3.14,0 -6.39,-0.29 -9.59,-0.91c-1.68,-0.37 -3.34,-0.78 -4.99,-1.26c-11.87,-3.74 -18.76,-9.03 -22.69,-13.31c-1.97,-2.15 -3.2,-4.06 -3.93,-5.42c-0.12,-0.22 -0.22,-0.42 -0.31,-0.61c-0.09,-0.19 0.02,-0.31 0.19,-0.31zm49.49,22.86c4.92,-0.85 9.27,-2.46 12.45,-4.75l2.71,0.78c0.1,0.03 0.2,0.04 0.3,0.04c0,0 2.52,-0.14 2.73,-0.15c0.72,-0.04 1.04,0.38 1.04,0.53c0,0.15 0.02,0.34 0.02,0.34s0.03,0.45 -0.26,0.74c-0.27,0.27 -2.21,0.8 -2.92,1.03c-5.14,0.97 -10.38,1.47 -15.7,1.47c-0.12,-0.02 -0.25,-0.03 -0.37,-0.03zm77.79,-51.31c-4.25,10 -10.29,18.98 -18.02,26.71c-7.72,7.71 -16.7,13.77 -26.7,18.01c-3.94,1.67 -7.97,3.02 -12.07,4.05l-0.1,-1.67c0,-1.01 -1.14,-1.51 -1.77,-1.51l-3.61,0.06c0,0 -1.11,-0.27 -1.25,-0.31c-0.14,-0.04 -0.1,-0.18 -0.08,-0.21c0.25,-0.31 0.27,-0.75 0.02,-1.07l-2.76,-3.6l0.09,-2.56c8.1,-0.2 14.07,-3.27 16.85,-5.3c2.74,-2.03 2.91,-5.12 2.92,-6.04c0,-0.13 0,-0.22 -0.01,-0.26l-0.08,-7.18c0.03,-0.01 0.05,-0.02 0.08,-0.03l0,0l7.68,-4.31c0.3,-0.17 0.46,-0.49 0.44,-0.83l-5.04,-56.18c0.22,-0.07 0.93,-0.32 1.74,-0.62c0.98,-0.38 2.02,-0.78 2.63,-1.18c0.55,-0.39 2.86,-2.33 3.42,-2.91c0.49,-0.52 0.67,-1.19 0.67,-1.78c-0.01,-0.92 -0.36,-1.75 -0.72,-2.4c-0.32,-0.55 -0.75,-1 -1.23,-1.39c1.06,-2.36 1.6,-4.97 1.59,-7.67c0,-4.71 -1.13,-8.42 -2.21,-11.93c-1.09,-3.51 -2.14,-6.83 -2.14,-10.91c0,-7.57 0.08,-12.07 0.08,-12.08c0,-0.23 -0.09,-0.45 -0.25,-0.62c-0.16,-0.17 -0.38,-0.26 -0.61,-0.26c-2.54,-0.01 -4.12,0.83 -4.99,1.77c-0.41,0.44 -0.65,0.87 -0.81,1.23l-15.54,0c-0.15,-0.39 -0.41,-0.89 -0.83,-1.4c-0.84,-1.04 -2.42,-2.04 -4.88,-2.03c-0.23,0 -0.45,0.09 -0.61,0.26c-0.16,0.16 -0.25,0.38 -0.25,0.61c0,0.01 0.05,5.71 0.05,13.7c0,0.63 -0.03,1.25 -0.08,1.87c-0.32,-0.5 -0.66,-1 -1.02,-1.48c-0.96,-1.23 -1.97,-2.32 -3.22,-2.73c-1.12,-0.34 -2.79,-0.86 -4.75,-1.46c-0.72,-0.23 -1.01,-0.55 -1.22,-0.92c-0.12,-0.21 -0.18,-0.45 -0.22,-0.67l0.95,0.02l0.05,0c0.86,-0.03 1.59,-0.14 2.22,-0.4c0.62,-0.25 1.18,-0.71 1.39,-1.4c0.11,-0.35 0.14,-0.69 0.14,-0.99c0,-0.34 -0.04,-0.63 -0.09,-0.85l0.41,-0.72c0.13,-0.23 0.15,-0.51 0.05,-0.75c0.19,-0.17 0.29,-0.43 0.27,-0.69l-0.06,-0.88c0.04,-0.01 0.08,-0.02 0.13,-0.02c0.26,-0.05 0.53,-0.11 0.82,-0.24c0.14,-0.07 0.29,-0.15 0.45,-0.31c0.16,-0.15 0.33,-0.44 0.33,-0.77c0,-0.23 -0.05,-0.78 -0.13,-1.65c-0.19,-2.12 -0.52,-5.72 -0.63,-6.84c0.35,-0.47 0.96,-1.44 0.98,-2.71c0,-0.81 -0.23,-1.77 -0.98,-2.52c-0.72,-0.73 -1.85,-1.16 -3.35,-1.18c-0.67,-0.18 -4.14,-1.1 -5.15,-1.25c-0.75,-0.11 -1.75,-0.28 -2.93,-0.28c-2.01,-0.01 -4.55,0.53 -7.31,2.67c-3.57,2.81 -3.86,7.84 -3.88,10.07c0,0.43 0.01,0.77 0.03,0.96c-0.12,0.36 -0.3,1.1 -0.3,2.28c0,0.65 0.05,1.43 0.2,2.35c0.35,2.23 1.73,3.58 2.95,4.28c0.62,0.36 1.2,0.57 1.64,0.7l0,1.64c-0.68,0.34 -4.97,2.23 -9.1,5.07c-0.09,0.08 -0.43,0.27 -0.75,0.64c-0.01,0.01 -0.02,0.01 -0.03,0.02l-46.43,46.95c-0.16,0.16 -0.25,0.39 -0.25,0.63c0.01,0.23 0.11,0.46 0.28,0.61c0.01,0.01 3.2,2.91 6.74,6.15c0.88,0.81 1.79,1.63 2.67,2.44l-8.51,11.67c-0.72,0.91 -1.18,2.24 -1.17,4c0.01,3.56 1.77,8.97 7.18,17.4c6.17,9.59 10.89,14.01 12.64,15.46l-2.25,2.58c-0.08,0.08 -0.8,0.84 -1.54,1.83c-0.39,0.51 -0.78,1.08 -1.09,1.66c-0.08,0.14 -0.15,0.28 -0.21,0.43c-1.52,-1.32 -3,-2.69 -4.44,-4.13c-7.71,-7.72 -13.77,-16.7 -17.99,-26.71c-4.39,-10.34 -6.61,-21.35 -6.61,-32.71c0,-11.33 2.22,-22.33 6.61,-32.69c4.23,-10.02 10.28,-19 17.99,-26.72c7.73,-7.71 16.7,-13.77 26.71,-18.01c10.37,-4.37 21.36,-6.59 32.71,-6.59c11.34,0 22.34,2.21 32.7,6.59c10.01,4.24 18.99,10.3 26.7,18.01c7.72,7.72 13.77,16.7 18.02,26.72c4.37,10.36 6.59,21.36 6.59,32.69c0.03,11.37 -2.19,22.38 -6.56,32.72z" class="st1"/>
       </g>
      </g>
     </g>
     <g id="svg_12">
      <path id="svg_13" fill="#FFFFFF" d="m30.64998,132.295c0.99,-0.13 1.84,-0.12 2.54,0.03c0.71,0.15 1.31,0.44 1.8,0.87c0.49,0.43 0.88,1.01 1.17,1.73c0.29,0.71 0.5,1.58 0.63,2.59c0.11,0.86 0.12,1.67 0.04,2.4c-0.09,0.73 -0.31,1.38 -0.66,1.94c-0.35,0.56 -0.83,1.02 -1.45,1.39c-0.62,0.36 -2.09,0.67 -2.09,0.67c-0.14,0.03 -0.37,0.07 -0.51,0.09l-7.6,0.99c-0.14,0.02 -0.26,0.15 -0.27,0.29l-0.06,1.12c-0.01,0.14 -0.13,0.28 -0.27,0.3l-0.34,0.04c-0.14,0.02 -0.27,-0.08 -0.29,-0.22l-0.67,-5.12c-0.02,-0.14 0.08,-0.27 0.23,-0.29l0.33,-0.04c0.14,-0.02 0.29,0.08 0.34,0.21l0.35,1.05c0.04,0.14 0.2,0.23 0.34,0.21l8.5,-1.11c1.04,-0.14 1.82,-0.55 2.34,-1.26c0.52,-0.7 0.7,-1.67 0.54,-2.89c-0.17,-1.27 -0.6,-2.15 -1.3,-2.64c-0.7,-0.49 -2.81,-0.48 -2.81,-0.48c-0.14,0 -0.38,0.02 -0.52,0.04l-7.72,1.01c-0.14,0.02 -0.27,0.15 -0.27,0.29l-0.07,1.12c-0.01,0.15 -0.13,0.28 -0.27,0.3l-0.33,0.04c-0.14,0.02 -0.27,-0.08 -0.29,-0.23l-0.6,-4.59c-0.02,-0.14 0.08,-0.27 0.22,-0.29l0.34,-0.04c0.14,-0.02 0.29,0.08 0.34,0.21l0.35,1.07c0.04,0.13 0.2,0.23 0.34,0.21l7.65,-1.01z" class="st1"/>
      <path id="svg_14" fill="#FFFFFF" d="m21.47998,120.395c0.01,-0.14 0.12,-0.32 0.24,-0.39l10.73,-6.4l-8.98,-0.66c-0.14,-0.01 -0.29,0.09 -0.33,0.23l-0.29,1.06c-0.04,0.14 -0.19,0.24 -0.33,0.23l-0.34,-0.02c-0.14,-0.01 -0.25,-0.14 -0.24,-0.28l0.33,-4.41c0.01,-0.14 0.14,-0.25 0.28,-0.24l0.34,0.03c0.14,0.01 0.27,0.14 0.29,0.28l0.13,1.12c0.02,0.14 0.15,0.27 0.29,0.28l12.72,0.96c0.14,0.01 0.25,0.14 0.24,0.28l-0.1,1.25c-0.01,0.14 -0.12,0.32 -0.24,0.39l-12.4,7.27l10.45,0.79c0.14,0.01 0.29,-0.09 0.33,-0.23l0.29,-1.06c0.04,-0.14 0.18,-0.24 0.33,-0.23l0.34,0.02c0.14,0.01 0.25,0.13 0.24,0.28l-0.34,4.42c-0.01,0.14 -0.14,0.25 -0.28,0.24l-0.34,-0.03c-0.14,-0.01 -0.27,-0.14 -0.29,-0.28l-0.13,-1.11c-0.02,-0.14 -0.15,-0.27 -0.29,-0.28l-11.43,-0.87c-0.14,-0.01 -0.29,0.09 -0.33,0.23l-0.29,1.08c-0.04,0.14 -0.18,0.24 -0.33,0.23l-0.34,-0.02c-0.14,-0.01 -0.25,-0.14 -0.24,-0.28l0.31,-3.88z" class="st1"/>
      <path id="svg_15" fill="#FFFFFF" d="m25.87998,96.575c0.14,0.04 0.25,0.18 0.24,0.32l-0.06,1.1c-0.01,0.14 0.1,0.29 0.24,0.33l11.13,2.78c0.14,0.04 0.3,-0.04 0.36,-0.17l0.46,-1c0.06,-0.13 0.22,-0.21 0.36,-0.17l0.33,0.08c0.14,0.04 0.23,0.18 0.19,0.32l-1.25,5.01c-0.04,0.14 -0.18,0.22 -0.31,0.19l-0.33,-0.08c-0.14,-0.03 -0.25,-0.18 -0.24,-0.32l0.06,-1.1c0.01,-0.14 -0.1,-0.29 -0.24,-0.32l-11.13,-2.78c-0.14,-0.04 -0.3,0.04 -0.36,0.17l-0.47,1c-0.06,0.13 -0.22,0.21 -0.36,0.17l-0.33,-0.09c-0.14,-0.03 -0.22,-0.17 -0.19,-0.31l1.25,-5.01c0.04,-0.14 0.18,-0.22 0.32,-0.19l0.33,0.07z" class="st1"/>
      <path id="svg_16" fill="#FFFFFF" d="m43.31998,88.135c0.1,0.1 0.14,0.29 0.08,0.42l-0.6,1.42c-0.06,0.13 -0.22,0.23 -0.36,0.22l-13.51,-0.91c-0.14,-0.01 -0.33,0.08 -0.41,0.19l-0.5,0.68c-0.09,0.12 -0.26,0.17 -0.39,0.11l-0.31,-0.13c-0.13,-0.05 -0.19,-0.21 -0.14,-0.34l1.85,-4.35c0.06,-0.13 0.21,-0.19 0.34,-0.14l0.31,0.13c0.13,0.05 0.22,0.22 0.19,0.36l-0.16,0.87c-0.02,0.14 0.07,0.26 0.21,0.28l10.85,0.84l-7.97,-7.62c-0.1,-0.1 -0.25,-0.08 -0.34,0.04l-0.6,0.88c-0.08,0.12 -0.25,0.17 -0.39,0.12l-0.31,-0.13c-0.13,-0.06 -0.19,-0.21 -0.14,-0.34l1.67,-3.92c0.06,-0.13 0.21,-0.19 0.34,-0.14l0.31,0.13c0.13,0.06 0.22,0.22 0.19,0.36l-0.21,1.02c-0.03,0.14 0.03,0.34 0.13,0.43l9.87,9.52z" class="st1"/>
      <path id="svg_17" fill="#FFFFFF" d="m70.44998,51.065c0.33,-0.09 0.66,-0.21 1.01,-0.38c0.35,-0.16 0.64,-0.33 0.86,-0.49c0.78,-0.58 1.26,-1.19 1.45,-1.85c0.19,-0.66 0.05,-1.3 -0.41,-1.93c-0.27,-0.37 -0.59,-0.63 -0.95,-0.77c-0.36,-0.14 -0.74,-0.21 -1.14,-0.22c-0.4,-0.01 -0.82,0.03 -1.25,0.11c-0.43,0.08 -0.86,0.15 -1.29,0.22c-0.65,0.09 -1.23,0.16 -1.76,0.23c-0.53,0.07 -1.01,0.08 -1.44,0.02c-0.44,-0.05 -0.84,-0.18 -1.21,-0.39c-0.37,-0.21 -0.72,-0.54 -1.05,-0.99c-0.36,-0.49 -0.58,-1.01 -0.65,-1.54c-0.07,-0.53 -0.01,-1.07 0.17,-1.6c0.19,-0.54 0.5,-1.07 0.93,-1.59c0.44,-0.52 0.98,-1.02 1.62,-1.5c0.24,-0.18 0.51,-0.36 0.82,-0.53c0.3,-0.18 0.61,-0.34 0.93,-0.5c0.32,-0.15 0.63,-0.3 0.94,-0.43c0.31,-0.13 0.6,-0.22 0.6,-0.22c0.14,-0.04 0.28,-0.05 0.31,-0.02c0.04,0.03 0.12,0.16 0.19,0.28l1.09,1.91c0.07,0.13 0.03,0.3 -0.08,0.38l-0.72,0.53c-0.11,0.08 -0.3,0.08 -0.41,-0.01l-1.33,-1.12c-0.23,0 -0.51,0.07 -0.83,0.19c-0.32,0.12 -0.66,0.32 -1.03,0.6c-0.67,0.5 -1.08,1.04 -1.25,1.65c-0.16,0.6 -0.04,1.18 0.36,1.73c0.26,0.35 0.54,0.59 0.84,0.73c0.3,0.13 0.62,0.2 0.96,0.2c0.34,0 0.7,-0.03 1.06,-0.11c0.37,-0.08 0.75,-0.15 1.14,-0.22c0.54,-0.07 1.1,-0.16 1.69,-0.27c0.58,-0.1 1.15,-0.14 1.71,-0.12c0.55,0.02 1.07,0.14 1.56,0.34c0.49,0.2 0.9,0.56 1.26,1.08c0.45,0.67 0.7,1.31 0.76,1.92c0.06,0.61 -0.02,1.19 -0.25,1.75c-0.22,0.55 -0.58,1.09 -1.07,1.61c-0.49,0.52 -1.07,1.02 -1.72,1.5c-0.59,0.44 -1.21,0.81 -1.86,1.13c-0.65,0.32 -1.49,0.66 -1.49,0.66c-0.13,0.05 -0.27,0.07 -0.3,0.04c-0.03,-0.03 -0.12,-0.16 -0.19,-0.28l-1.1,-1.9c-0.07,-0.13 -0.04,-0.3 0.08,-0.38l0.72,-0.53c0.11,-0.09 0.3,-0.08 0.41,0.01l1.31,1.07z" class="st1"/>
      <path id="svg_18" fill="#FFFFFF" d="m80.72998,29.925c0.07,0.13 0.03,0.3 -0.08,0.4l-0.86,0.69c-0.11,0.09 -0.15,0.27 -0.08,0.39l5.43,10.11c0.07,0.13 0.24,0.19 0.37,0.15l1.05,-0.33c0.14,-0.04 0.3,0.02 0.37,0.15l0.16,0.3c0.07,0.13 0.02,0.28 -0.11,0.35l-4.55,2.44c-0.13,0.07 -0.28,0.02 -0.35,-0.11l-0.16,-0.3c-0.07,-0.12 -0.03,-0.3 0.08,-0.39l0.85,-0.7c0.11,-0.09 0.15,-0.26 0.08,-0.39l-5.43,-10.1c-0.07,-0.13 -0.23,-0.2 -0.37,-0.15l-1.05,0.33c-0.14,0.04 -0.3,-0.03 -0.37,-0.15l-0.16,-0.3c-0.07,-0.13 -0.02,-0.29 0.11,-0.35l4.55,-2.45c0.13,-0.07 0.29,-0.02 0.35,0.11l0.17,0.3z" class="st1"/>
      <path id="svg_19" fill="#FFFFFF" d="m86.37998,26.625c0.03,-0.08 0.17,-0.19 0.3,-0.24l10.61,-3.86c0.14,-0.05 0.3,-0.07 0.37,-0.05c0.07,0.02 0.17,0.15 0.22,0.28l0.91,2.27c0.05,0.13 -0.01,0.28 -0.15,0.33l-0.85,0.31c-0.14,0.05 -0.31,-0.01 -0.39,-0.13l-0.75,-1.11c-0.08,-0.12 -0.26,-0.18 -0.39,-0.14l-1.11,0.33c-0.14,0.04 -0.36,0.11 -0.49,0.16l-1.08,0.39l3.98,10.97c0.05,0.13 0.21,0.23 0.35,0.2l1.09,-0.17c0.14,-0.02 0.3,0.07 0.35,0.2l0.12,0.32c0.05,0.14 -0.02,0.28 -0.16,0.33l-4.85,1.76c-0.14,0.05 -0.29,-0.02 -0.33,-0.16l-0.12,-0.32c-0.05,-0.13 0.01,-0.3 0.13,-0.37l0.95,-0.57c0.12,-0.07 0.18,-0.24 0.13,-0.38l-3.99,-10.97l-1.08,0.4c-0.14,0.05 -0.35,0.14 -0.49,0.19l-1.06,0.46c-0.13,0.06 -0.23,0.22 -0.21,0.36l0.14,1.33c0.02,0.14 -0.08,0.3 -0.22,0.35l-0.85,0.31c-0.14,0.05 -0.28,-0.02 -0.33,-0.16l-0.73,-2.25c-0.04,-0.11 -0.05,-0.29 -0.02,-0.37z" class="st1"/>
      <path id="svg_20" fill="#FFFFFF" d="m112.35998,28.125l-4.74,0.9l-0.73,4.34c-0.02,0.14 0.07,0.26 0.22,0.26l0.98,0.02c0.14,0 0.28,0.12 0.31,0.26l0.06,0.33c0.02,0.14 -0.07,0.28 -0.21,0.3l-4.15,0.78c-0.14,0.02 -0.28,-0.07 -0.3,-0.21l-0.06,-0.33c-0.03,-0.14 0.06,-0.3 0.19,-0.36l0.85,-0.36c0.13,-0.06 0.26,-0.22 0.29,-0.36l2.62,-13.64c0.03,-0.14 0.17,-0.28 0.3,-0.31l1.82,-0.34c0.14,-0.02 0.31,0.05 0.38,0.18l6.75,11.86c0.07,0.12 0.25,0.23 0.39,0.23l0.9,0.03c0.15,0 0.28,0.12 0.31,0.26l0.06,0.33c0.03,0.14 -0.07,0.28 -0.21,0.3l-4.75,0.9c-0.14,0.02 -0.28,-0.07 -0.31,-0.21l-0.06,-0.33c-0.03,-0.14 0.06,-0.3 0.19,-0.36l0.85,-0.36c0.13,-0.05 0.18,-0.2 0.12,-0.33l-2.07,-3.78zm-3.44,-6.24l-1.09,6.03l4,-0.75l-2.91,-5.28z" class="st1"/>
      <path id="svg_21" fill="#FFFFFF" d="m125.48998,31.045c0.31,0.12 0.66,0.22 1.04,0.29c0.38,0.07 0.71,0.11 0.98,0.11c0.97,0 1.72,-0.21 2.27,-0.63c0.54,-0.42 0.81,-1.01 0.81,-1.79c0,-0.46 -0.11,-0.86 -0.31,-1.18c-0.21,-0.33 -0.47,-0.61 -0.79,-0.86c-0.32,-0.25 -0.68,-0.46 -1.08,-0.65c-0.39,-0.19 -0.79,-0.39 -1.17,-0.59c-0.57,-0.31 -1.09,-0.59 -1.56,-0.85c-0.46,-0.26 -0.86,-0.53 -1.18,-0.83c-0.32,-0.3 -0.57,-0.64 -0.74,-1.03c-0.17,-0.39 -0.26,-0.86 -0.26,-1.42c0,-0.61 0.13,-1.16 0.38,-1.63c0.26,-0.47 0.62,-0.87 1.09,-1.19c0.47,-0.32 1.03,-0.57 1.69,-0.73c0.66,-0.17 1.39,-0.25 2.2,-0.26c0.3,0 0.62,0.02 0.97,0.06c0.35,0.04 0.7,0.09 1.04,0.15c0.35,0.06 0.69,0.13 1.01,0.21c0.33,0.08 0.61,0.18 0.61,0.18c0.13,0.05 0.26,0.12 0.27,0.16c0.01,0.05 0.01,0.2 -0.01,0.34l-0.26,2.18c-0.02,0.14 -0.15,0.26 -0.29,0.26l-0.89,0c-0.14,0 -0.29,-0.11 -0.32,-0.25l-0.42,-1.69c-0.19,-0.14 -0.45,-0.25 -0.78,-0.33c-0.33,-0.09 -0.72,-0.13 -1.19,-0.13c-0.83,0 -1.49,0.2 -1.98,0.59c-0.49,0.39 -0.73,0.93 -0.73,1.61c0,0.44 0.09,0.8 0.25,1.08c0.16,0.28 0.38,0.53 0.66,0.73c0.27,0.2 0.58,0.38 0.92,0.54c0.34,0.16 0.69,0.32 1.05,0.5c0.48,0.26 0.98,0.52 1.52,0.78c0.53,0.26 1.01,0.57 1.44,0.91c0.43,0.35 0.78,0.74 1.06,1.19c0.27,0.45 0.4,0.99 0.37,1.61c-0.04,0.81 -0.21,1.47 -0.52,2c-0.31,0.53 -0.72,0.95 -1.23,1.26c-0.51,0.32 -1.12,0.54 -1.82,0.66c-0.7,0.13 -1.46,0.19 -2.28,0.19c-0.74,0 -1.46,-0.06 -2.17,-0.18c-0.71,-0.13 -1.59,-0.35 -1.59,-0.35c-0.14,-0.04 -0.26,-0.1 -0.26,-0.15c-0.01,-0.04 0,-0.2 0.02,-0.34l0.24,-2.18c0.02,-0.14 0.15,-0.26 0.29,-0.26l0.89,0c0.14,0 0.29,0.11 0.32,0.25l0.44,1.66z" class="st1"/>
      <path id="svg_22" fill="#FFFFFF" d="m162.54998,36.845c-1.56,0.84 -3.4,0.91 -5.53,0.22c-1.03,-0.33 -1.89,-0.78 -2.6,-1.34c-0.71,-0.56 -1.24,-1.22 -1.61,-1.98c-0.37,-0.76 -0.56,-1.62 -0.57,-2.58c-0.01,-0.96 0.17,-2 0.53,-3.13c0.38,-1.18 0.87,-2.17 1.48,-2.96c0.6,-0.79 1.29,-1.39 2.06,-1.81c0.77,-0.41 1.62,-0.64 2.54,-0.67c0.92,-0.04 1.89,0.11 2.9,0.43c1.01,0.33 1.87,0.77 2.59,1.33c0.71,0.56 1.26,1.23 1.63,2c0.37,0.77 0.57,1.64 0.58,2.61c0.02,0.96 -0.16,2.02 -0.53,3.16c-0.76,2.31 -1.91,3.89 -3.47,4.72zm1.29,-10.3c-0.38,-1.2 -1.21,-2 -2.49,-2.42c-1.3,-0.42 -2.45,-0.27 -3.46,0.45c-1,0.72 -1.84,2.09 -2.49,4.12c-0.67,2.05 -0.81,3.67 -0.44,4.87c0.37,1.2 1.21,2 2.5,2.42c1.3,0.42 2.45,0.27 3.46,-0.45c1.01,-0.72 1.84,-2.09 2.49,-4.12c0.66,-2.05 0.8,-3.67 0.43,-4.87z" class="st1"/>
      <path id="svg_23" fill="#FFFFFF" d="m170.95998,41.055c0.22,0.26 0.47,0.51 0.77,0.76c0.3,0.25 0.57,0.44 0.81,0.57c0.85,0.46 1.61,0.64 2.29,0.53c0.68,-0.1 1.2,-0.5 1.57,-1.18c0.22,-0.41 0.32,-0.8 0.3,-1.19c-0.02,-0.38 -0.12,-0.76 -0.28,-1.13c-0.17,-0.37 -0.37,-0.73 -0.63,-1.08c-0.26,-0.36 -0.5,-0.71 -0.74,-1.08c-0.35,-0.55 -0.67,-1.05 -0.95,-1.5c-0.28,-0.45 -0.49,-0.88 -0.63,-1.3c-0.14,-0.42 -0.19,-0.83 -0.15,-1.26c0.04,-0.42 0.19,-0.88 0.45,-1.37c0.29,-0.54 0.67,-0.96 1.12,-1.24c0.45,-0.29 0.96,-0.47 1.53,-0.52c0.57,-0.06 1.18,0 1.84,0.17c0.66,0.17 1.34,0.45 2.05,0.83c0.26,0.14 0.54,0.31 0.82,0.52c0.29,0.2 0.57,0.41 0.84,0.63c0.28,0.22 0.54,0.45 0.79,0.67c0.25,0.23 0.45,0.45 0.45,0.45c0.1,0.11 0.17,0.23 0.15,0.27c-0.01,0.04 -0.09,0.18 -0.17,0.29l-1.27,1.79c-0.08,0.12 -0.26,0.16 -0.38,0.09l-0.78,-0.43c-0.13,-0.07 -0.2,-0.24 -0.16,-0.38l0.45,-1.68c-0.1,-0.21 -0.28,-0.43 -0.52,-0.67c-0.25,-0.23 -0.57,-0.46 -0.98,-0.68c-0.73,-0.39 -1.4,-0.54 -2.02,-0.43c-0.62,0.11 -1.09,0.46 -1.41,1.06c-0.21,0.38 -0.31,0.74 -0.3,1.07c0.01,0.33 0.08,0.65 0.22,0.96c0.14,0.31 0.33,0.61 0.55,0.92c0.23,0.3 0.45,0.61 0.68,0.94c0.29,0.45 0.61,0.93 0.95,1.41c0.34,0.49 0.62,0.99 0.83,1.5c0.21,0.51 0.33,1.03 0.35,1.55c0.02,0.53 -0.13,1.06 -0.45,1.6c-0.42,0.69 -0.89,1.19 -1.42,1.5c-0.53,0.31 -1.09,0.48 -1.69,0.51c-0.6,0.03 -1.24,-0.07 -1.91,-0.29c-0.67,-0.23 -1.37,-0.53 -2.09,-0.92c-0.65,-0.35 -1.25,-0.75 -1.81,-1.2c-0.56,-0.45 -1.23,-1.07 -1.23,-1.07c-0.11,-0.1 -0.18,-0.21 -0.16,-0.26c0.02,-0.04 0.1,-0.17 0.18,-0.29l1.26,-1.8c0.08,-0.11 0.25,-0.15 0.38,-0.09l0.78,0.42c0.13,0.07 0.2,0.24 0.16,0.38l-0.44,1.65z" class="st1"/>
      <path id="svg_24" fill="#FFFFFF" d="m185.84998,50.455c-0.09,0.11 -0.07,0.28 0.04,0.37l1.76,1.38c0.11,0.09 0.3,0.23 0.42,0.31l0.94,0.65c0.12,0.08 0.31,0.07 0.42,-0.02l1.15,-0.93c0.11,-0.09 0.3,-0.09 0.41,0l0.72,0.56c0.11,0.09 0.13,0.25 0.04,0.36l-1.52,1.81c-0.09,0.11 -0.21,0.24 -0.26,0.28c-0.05,0.05 -0.19,0.01 -0.3,-0.08l-7.63,-5.98c-0.11,-0.09 -0.13,-0.25 -0.04,-0.37l0.21,-0.26c0.09,-0.11 0.27,-0.15 0.39,-0.09l0.98,0.5c0.13,0.07 0.3,0.03 0.39,-0.09l7.08,-9.02c0.09,-0.11 0.08,-0.29 -0.01,-0.4l-0.72,-0.83c-0.09,-0.11 -0.1,-0.29 -0.01,-0.4l0.21,-0.26c0.09,-0.11 0.25,-0.14 0.37,-0.05l4.05,3.17c0.11,0.09 0.13,0.25 0.05,0.37l-0.21,0.27c-0.09,0.11 -0.26,0.15 -0.39,0.09l-0.98,-0.5c-0.13,-0.07 -0.31,-0.03 -0.39,0.09l-7.17,9.07z" class="st1"/>
      <path id="svg_25" fill="#FFFFFF" d="m202.78998,66.515c-1.77,-0.08 -3.39,-0.95 -4.87,-2.63c-0.71,-0.81 -1.23,-1.63 -1.55,-2.47c-0.32,-0.84 -0.45,-1.68 -0.38,-2.53c0.07,-0.85 0.35,-1.68 0.82,-2.51c0.48,-0.83 1.16,-1.64 2.05,-2.42c0.93,-0.82 1.86,-1.42 2.78,-1.8c0.92,-0.38 1.82,-0.55 2.69,-0.51c0.87,0.04 1.71,0.28 2.53,0.72c0.81,0.44 1.57,1.05 2.27,1.85c0.7,0.8 1.22,1.62 1.55,2.46c0.33,0.85 0.45,1.7 0.38,2.55c-0.07,0.86 -0.35,1.7 -0.83,2.54c-0.48,0.84 -1.17,1.65 -2.07,2.45c-1.81,1.61 -3.6,2.38 -5.37,2.3zm6.35,-8.21c0.29,-1.22 -0.02,-2.34 -0.91,-3.35c-0.9,-1.02 -1.97,-1.48 -3.2,-1.37c-1.23,0.11 -2.65,0.87 -4.24,2.27c-1.62,1.43 -2.57,2.75 -2.86,3.97c-0.29,1.22 0.01,2.34 0.92,3.36c0.9,1.02 1.97,1.48 3.2,1.37c1.23,-0.11 2.65,-0.86 4.24,-2.27c1.62,-1.43 2.57,-2.75 2.85,-3.98z" class="st1"/>
      <path id="svg_26" fill="#FFFFFF" d="m215.00998,75.515c0.11,-0.09 0.14,-0.27 0.07,-0.39l-1.55,-2.64l-5.11,3.08l1.67,2.81c0.07,0.12 0.2,0.32 0.28,0.44l0.64,0.94c0.08,0.12 0.26,0.18 0.39,0.14l1.4,-0.46c0.13,-0.04 0.31,0.02 0.38,0.14l0.48,0.8c0.07,0.12 0.03,0.28 -0.1,0.35l-2.07,1.14c-0.13,0.07 -0.28,0.14 -0.34,0.17c-0.06,0.02 -0.18,-0.06 -0.25,-0.18l-5.37,-9.04c-0.07,-0.12 -0.03,-0.28 0.09,-0.36l0.29,-0.17c0.12,-0.07 0.3,-0.05 0.4,0.06l0.73,0.83c0.09,0.11 0.27,0.13 0.4,0.06l9.86,-5.86c0.12,-0.07 0.18,-0.24 0.14,-0.38l-0.37,-1.04c-0.05,-0.14 0.01,-0.3 0.14,-0.38l0.29,-0.17c0.12,-0.07 0.28,-0.03 0.36,0.09l5.12,8.62c0.07,0.12 0.13,0.28 0.12,0.36c-0.01,0.07 -0.11,0.2 -0.23,0.28l-2.06,1.32c-0.12,0.08 -0.28,0.04 -0.35,-0.08l-0.47,-0.78c-0.07,-0.12 -0.05,-0.3 0.06,-0.4l1.12,-1.05c0.1,-0.1 0.14,-0.28 0.07,-0.41l-0.53,-1.03c-0.06,-0.13 -0.18,-0.33 -0.25,-0.45l-1.51,-2.55l-4.52,2.7l1.56,2.63c0.07,0.12 0.24,0.18 0.38,0.13l1.03,-0.39c0.13,-0.05 0.3,0.01 0.38,0.14l0.39,0.66c0.07,0.13 0.03,0.28 -0.09,0.36l-3.33,1.98c-0.12,0.07 -0.28,0.03 -0.36,-0.09l-0.39,-0.66c-0.07,-0.12 -0.04,-0.3 0.07,-0.39l0.94,-0.88z" class="st1"/>
      <path id="svg_27" fill="#FFFFFF" d="m46.03998,69.405c-0.13,-0.06 -0.3,0 -0.38,0.12l-1.68,2.56l5.02,3.23l1.79,-2.74c0.08,-0.12 0.2,-0.32 0.27,-0.45l0.56,-0.99c0.07,-0.13 0.05,-0.31 -0.05,-0.41l-1.03,-1.05c-0.1,-0.1 -0.12,-0.28 -0.04,-0.4l0.51,-0.78c0.08,-0.12 0.24,-0.15 0.36,-0.07l1.94,1.36c0.12,0.08 0.25,0.19 0.3,0.23c0.05,0.05 0.03,0.18 -0.05,0.3l-5.74,8.81c-0.08,0.12 -0.24,0.15 -0.36,0.07l-0.28,-0.18c-0.12,-0.08 -0.17,-0.25 -0.12,-0.38l0.42,-1.02c0.05,-0.13 0,-0.3 -0.12,-0.38l-9.61,-6.26c-0.12,-0.08 -0.3,-0.06 -0.4,0.05l-0.77,0.79c-0.1,0.1 -0.28,0.12 -0.4,0.04l-0.28,-0.18c-0.12,-0.08 -0.15,-0.24 -0.08,-0.36l5.48,-8.4c0.08,-0.12 0.2,-0.24 0.27,-0.27c0.07,-0.03 0.23,0.01 0.35,0.09l2.1,1.27c0.12,0.07 0.16,0.23 0.08,0.35l-0.5,0.76c-0.08,0.12 -0.25,0.18 -0.39,0.13l-1.44,-0.53c-0.13,-0.05 -0.31,0 -0.4,0.12l-0.69,0.93c-0.09,0.12 -0.22,0.31 -0.3,0.43l-1.63,2.48l4.42,2.87l1.67,-2.56c0.08,-0.12 0.06,-0.3 -0.05,-0.39l-0.8,-0.76c-0.1,-0.1 -0.12,-0.28 -0.05,-0.4l0.42,-0.64c0.08,-0.12 0.24,-0.16 0.36,-0.08l3.25,2.12c0.12,0.08 0.16,0.24 0.08,0.36l-0.42,0.65c-0.08,0.12 -0.25,0.17 -0.38,0.11l-1.21,-0.55z" class="st1"/>
      <path id="svg_28" fill="#FFFFFF" d="m228.74998,86.785c0.05,0.13 0.02,0.34 -0.07,0.46l-7.32,10.14l8.52,-2.97c0.13,-0.05 0.23,-0.2 0.21,-0.34l-0.16,-1.09c-0.02,-0.14 0.07,-0.3 0.21,-0.34l0.32,-0.11c0.14,-0.05 0.29,0.03 0.33,0.16l1.45,4.18c0.05,0.14 -0.03,0.29 -0.16,0.33l-0.32,0.11c-0.13,0.05 -0.3,-0.01 -0.38,-0.14l-0.56,-0.98c-0.07,-0.12 -0.24,-0.19 -0.38,-0.14l-12.06,4.17c-0.14,0.05 -0.28,-0.03 -0.33,-0.16l-0.41,-1.19c-0.05,-0.14 -0.02,-0.34 0.07,-0.46l8.49,-11.61l-9.91,3.43c-0.14,0.05 -0.23,0.2 -0.21,0.34l0.16,1.09c0.02,0.14 -0.07,0.3 -0.21,0.34l-0.32,0.11c-0.14,0.05 -0.29,-0.02 -0.33,-0.16l-1.45,-4.18c-0.05,-0.13 0.02,-0.29 0.16,-0.33l0.32,-0.11c0.13,-0.05 0.3,0.01 0.37,0.14l0.56,0.97c0.07,0.12 0.24,0.19 0.38,0.14l10.84,-3.75c0.14,-0.05 0.23,-0.2 0.21,-0.34l-0.16,-1.11c-0.02,-0.14 0.07,-0.3 0.21,-0.34l0.32,-0.11c0.14,-0.04 0.28,0.03 0.33,0.16l1.28,3.69z" class="st1"/>
      <path id="svg_29" fill="#FFFFFF" d="m221.22998,108.715c-0.08,0.32 -0.12,0.68 -0.14,1.07c-0.02,0.39 -0.01,0.72 0.03,0.99c0.14,0.95 0.45,1.67 0.94,2.15c0.49,0.48 1.12,0.67 1.89,0.56c0.46,-0.07 0.83,-0.22 1.13,-0.48c0.29,-0.25 0.54,-0.55 0.74,-0.9c0.2,-0.35 0.36,-0.74 0.49,-1.16c0.13,-0.42 0.27,-0.83 0.42,-1.24c0.23,-0.61 0.44,-1.17 0.63,-1.66c0.19,-0.5 0.41,-0.92 0.66,-1.29c0.25,-0.36 0.56,-0.65 0.92,-0.87c0.36,-0.22 0.82,-0.37 1.37,-0.45c0.61,-0.09 1.16,-0.04 1.66,0.15c0.5,0.19 0.95,0.49 1.33,0.91c0.38,0.42 0.7,0.94 0.96,1.58c0.26,0.63 0.44,1.35 0.56,2.14c0.04,0.3 0.07,0.62 0.08,0.96c0.01,0.35 0.01,0.7 0,1.05c-0.01,0.35 -0.04,0.7 -0.07,1.03c-0.04,0.34 -0.09,0.63 -0.09,0.63c-0.03,0.14 -0.08,0.27 -0.13,0.29c-0.04,0.02 -0.2,0.04 -0.34,0.04l-2.2,0.05c-0.14,0 -0.28,-0.11 -0.3,-0.25l-0.13,-0.88c-0.02,-0.14 0.07,-0.3 0.21,-0.36l1.61,-0.64c0.11,-0.21 0.18,-0.48 0.22,-0.81c0.04,-0.34 0.03,-0.73 -0.04,-1.2c-0.12,-0.82 -0.4,-1.45 -0.86,-1.88c-0.46,-0.43 -1.02,-0.59 -1.69,-0.5c-0.43,0.06 -0.78,0.19 -1.04,0.4c-0.26,0.2 -0.47,0.45 -0.64,0.75c-0.16,0.3 -0.3,0.63 -0.41,0.99c-0.11,0.36 -0.22,0.73 -0.35,1.1c-0.19,0.51 -0.38,1.05 -0.56,1.61c-0.19,0.56 -0.42,1.08 -0.71,1.56c-0.28,0.47 -0.63,0.88 -1.03,1.21c-0.41,0.33 -0.92,0.53 -1.55,0.59c-0.8,0.08 -1.49,0 -2.05,-0.24c-0.56,-0.24 -1.04,-0.58 -1.42,-1.04c-0.38,-0.46 -0.69,-1.03 -0.91,-1.71c-0.22,-0.67 -0.39,-1.42 -0.51,-2.23c-0.1,-0.73 -0.14,-1.45 -0.12,-2.17c0.03,-0.72 0.13,-1.62 0.13,-1.62c0.02,-0.14 0.06,-0.27 0.11,-0.28c0.04,-0.01 0.2,-0.02 0.34,-0.03l2.2,-0.06c0.14,-0.01 0.28,0.11 0.3,0.25l0.13,0.88c0.02,0.14 -0.07,0.3 -0.2,0.36l-1.57,0.65z" class="st1"/>
      <path id="svg_30" fill="#FFFFFF" d="m234.99998,128.035c-0.14,0 -0.28,-0.11 -0.31,-0.25l-0.22,-1.08c-0.03,-0.14 -0.17,-0.25 -0.31,-0.25l-11.47,0.05c-0.15,0 -0.28,0.12 -0.31,0.26l-0.2,1.08c-0.03,0.14 -0.16,0.26 -0.31,0.26l-0.34,0c-0.14,0 -0.26,-0.12 -0.26,-0.26l-0.02,-5.16c0,-0.14 0.12,-0.26 0.26,-0.26l0.34,0c0.14,0 0.28,0.11 0.31,0.25l0.21,1.08c0.03,0.14 0.17,0.25 0.31,0.25l11.47,-0.05c0.14,0 0.28,-0.12 0.31,-0.26l0.2,-1.08c0.03,-0.14 0.17,-0.26 0.31,-0.26l0.34,0c0.15,0 0.26,0.12 0.26,0.26l0.02,5.16c0,0.14 -0.12,0.26 -0.26,0.26l-0.33,0z" class="st1"/>
      <path id="svg_31" fill="#FFFFFF" d="m221.86998,136.765c-0.17,0.29 -0.32,0.62 -0.45,0.98c-0.13,0.36 -0.22,0.68 -0.26,0.95c-0.15,0.95 -0.06,1.73 0.27,2.34c0.32,0.6 0.87,0.96 1.64,1.08c0.46,0.07 0.87,0.03 1.22,-0.12c0.35,-0.15 0.68,-0.37 0.97,-0.64c0.29,-0.28 0.56,-0.6 0.81,-0.96c0.25,-0.36 0.5,-0.71 0.77,-1.06c0.4,-0.51 0.76,-0.98 1.09,-1.4c0.33,-0.42 0.66,-0.76 1.01,-1.03c0.35,-0.27 0.72,-0.46 1.14,-0.57c0.41,-0.11 0.89,-0.12 1.44,-0.03c0.61,0.09 1.12,0.31 1.55,0.63c0.43,0.33 0.76,0.75 1,1.27c0.24,0.51 0.4,1.11 0.45,1.79c0.06,0.68 0.03,1.42 -0.1,2.21c-0.04,0.3 -0.12,0.61 -0.21,0.95c-0.09,0.34 -0.2,0.67 -0.31,1c-0.11,0.34 -0.24,0.65 -0.37,0.97c-0.13,0.31 -0.27,0.57 -0.27,0.57c-0.07,0.13 -0.16,0.23 -0.21,0.24c-0.05,0 -0.2,-0.03 -0.34,-0.06l-2.12,-0.6c-0.14,-0.04 -0.23,-0.19 -0.21,-0.33l0.14,-0.88c0.02,-0.14 0.16,-0.26 0.3,-0.28l1.73,-0.14c0.16,-0.17 0.31,-0.41 0.45,-0.71c0.14,-0.31 0.24,-0.69 0.32,-1.15c0.13,-0.82 0.04,-1.5 -0.27,-2.05c-0.31,-0.54 -0.8,-0.87 -1.47,-0.97c-0.43,-0.07 -0.8,-0.04 -1.11,0.07c-0.31,0.12 -0.59,0.29 -0.83,0.53c-0.24,0.24 -0.47,0.51 -0.68,0.82c-0.21,0.31 -0.43,0.63 -0.66,0.95c-0.33,0.43 -0.67,0.89 -1.01,1.37c-0.35,0.48 -0.72,0.91 -1.13,1.28c-0.41,0.37 -0.86,0.65 -1.35,0.85c-0.48,0.2 -1.04,0.24 -1.65,0.11c-0.79,-0.17 -1.42,-0.44 -1.89,-0.83c-0.47,-0.39 -0.82,-0.87 -1.05,-1.42c-0.23,-0.55 -0.35,-1.19 -0.36,-1.9c-0.01,-0.71 0.05,-1.47 0.17,-2.28c0.11,-0.73 0.29,-1.43 0.53,-2.11s0.6,-1.51 0.6,-1.51c0.06,-0.13 0.14,-0.24 0.19,-0.24c0.04,0 0.2,0.03 0.33,0.07l2.12,0.58c0.14,0.04 0.23,0.18 0.21,0.33l-0.14,0.88c-0.02,0.14 -0.16,0.27 -0.3,0.28l-1.7,0.17z" class="st1"/>
     </g>
     <g id="svg_32">
      <path id="svg_33" fill="#FFFFFF" d="m67.11998,210.615c0.13,0.06 0.3,0.01 0.38,-0.11l5.9,-8.48l-10.99,6.23c-0.13,0.07 -0.32,0.05 -0.43,-0.04l-0.44,-0.36c-0.11,-0.09 -0.17,-0.28 -0.14,-0.42l3.18,-11.87l-6.67,7.27c-0.1,0.1 -0.12,0.28 -0.03,0.39l0.67,0.91c0.09,0.12 0.08,0.3 -0.02,0.4l-0.23,0.24c-0.1,0.1 -0.26,0.11 -0.37,0.01l-3.25,-3.03c-0.11,-0.1 -0.11,-0.26 -0.01,-0.37l0.23,-0.25c0.1,-0.1 0.28,-0.13 0.4,-0.05l0.94,0.59c0.12,0.07 0.3,0.05 0.4,-0.05l7.55,-8.38c0.1,-0.11 0.1,-0.28 0,-0.39l-0.71,-0.85c-0.09,-0.11 -0.09,-0.29 0,-0.4l0.21,-0.26c0.09,-0.11 0.26,-0.13 0.37,-0.04l3.4,2.76c0.11,0.09 0.17,0.28 0.14,0.42l-2.71,10.45l9.31,-5.07c0.13,-0.07 0.32,-0.05 0.43,0.04l3.26,2.65c0.11,0.09 0.13,0.25 0.04,0.36l-0.21,0.26c-0.09,0.11 -0.27,0.15 -0.39,0.08l-0.98,-0.53c-0.13,-0.07 -0.3,-0.03 -0.39,0.08l-6.44,9.15c-0.08,0.12 -0.07,0.3 0.03,0.41l0.76,0.81c0.1,0.1 0.11,0.28 0.02,0.4l-0.2,0.27c-0.09,0.12 -0.25,0.14 -0.36,0.06l-4.19,-3.07c-0.11,-0.08 -0.14,-0.25 -0.06,-0.36l0.2,-0.27c0.08,-0.12 0.26,-0.16 0.39,-0.1l1.01,0.51z" class="st1"/>
      <path id="svg_34" fill="#FFFFFF" d="m91.73998,209.885c1.01,0.51 1.89,1.09 2.65,1.74c0.75,0.64 1.32,1.37 1.7,2.17c0.38,0.8 0.55,1.69 0.51,2.66c-0.05,0.98 -0.37,2.05 -0.97,3.23c-0.56,1.1 -1.22,1.98 -1.98,2.63c-0.76,0.65 -1.58,1.09 -2.47,1.31c-0.89,0.22 -1.83,0.24 -2.83,0.06c-1,-0.18 -2.85,-0.97 -2.85,-0.97c-0.13,-0.06 -0.34,-0.15 -0.47,-0.22l-4.96,-2.54c-0.13,-0.06 -0.18,-0.22 -0.11,-0.35l0.15,-0.3c0.06,-0.13 0.23,-0.2 0.37,-0.16l1.07,0.31c0.14,0.04 0.3,-0.03 0.37,-0.16l5.21,-10.18c0.07,-0.13 0.03,-0.3 -0.09,-0.39l-0.87,-0.68c-0.11,-0.09 -0.15,-0.26 -0.09,-0.39l0.15,-0.3c0.07,-0.13 0.22,-0.18 0.35,-0.11l5.16,2.64zm2.33,6.03c0.14,-0.79 0.12,-1.51 -0.05,-2.15c-0.18,-0.64 -0.52,-1.22 -1.01,-1.72c-0.5,-0.51 -1.73,-1.24 -1.73,-1.24c-0.12,-0.08 -0.33,-0.19 -0.46,-0.25l-1.3,-0.67l-5.53,10.81l1.24,0.64c0.6,0.3 1.18,0.55 1.73,0.74c0.56,0.18 1.09,0.27 1.61,0.26c0.82,-0.07 1.62,-0.39 2.41,-0.96c0.79,-0.58 1.51,-1.51 2.16,-2.79c0.48,-0.99 0.79,-1.88 0.93,-2.67z" class="st1"/>
      <path id="svg_35" fill="#FFFFFF" d="m116.19998,219.955c-0.03,-0.48 -0.02,-0.56 -0.03,-0.9c-0.02,-0.42 -0.15,-0.57 -0.57,-0.84c-0.17,-0.1 -0.35,-0.19 -0.54,-0.27c-0.31,-0.14 -0.66,-0.25 -1.05,-0.32c-0.71,-0.13 -1.38,-0.12 -2.01,0.02c-0.63,0.14 -1.19,0.42 -1.69,0.84c-0.5,0.42 -0.93,0.98 -1.29,1.68c-0.36,0.7 -0.62,1.55 -0.8,2.52c-0.38,2.08 -0.23,3.69 0.44,4.85c0.67,1.16 1.84,1.89 3.49,2.19c0.48,0.09 1.01,0.12 1.58,0.1c0.49,-0.02 1.04,-0.09 1.68,-0.17c0.33,-0.04 0.36,0.2 0.36,0.2l0.04,0.26c0,0 0.03,0.3 -0.22,0.4c-0.56,0.21 -1.2,0.36 -1.91,0.46c-0.83,0.11 -1.73,0.08 -2.72,-0.1c-0.94,-0.17 -1.8,-0.46 -2.58,-0.86c-0.78,-0.41 -1.41,-0.94 -1.92,-1.62c-0.5,-0.67 -0.85,-1.49 -1.04,-2.45c-0.19,-0.96 -0.16,-2.08 0.07,-3.37c0.24,-1.3 0.63,-2.38 1.18,-3.25c0.55,-0.86 1.22,-1.54 2.01,-2.03c0.78,-0.49 1.66,-0.79 2.64,-0.92c0.98,-0.13 2.01,-0.09 3.1,0.11c0.74,0.14 1.42,0.33 2.04,0.59c0.43,0.18 0.84,0.36 1.22,0.55c0.53,0.26 0.39,0.71 0.39,0.71l-0.57,1.88c0,0 -0.14,0.41 -0.5,0.35c-0.32,-0.06 -0.52,-0.09 -0.52,-0.09s-0.25,-0.04 -0.28,-0.52z" class="st1"/>
      <path id="svg_36" fill="#FFFFFF" d="m137.98998,220.435c-0.14,-0.46 -0.15,-0.54 -0.24,-0.87c-0.12,-0.4 -0.29,-0.52 -0.76,-0.68c-0.18,-0.06 -0.38,-0.11 -0.59,-0.14c-0.33,-0.06 -0.7,-0.08 -1.09,-0.06c-0.73,0.04 -1.37,0.21 -1.95,0.49c-0.57,0.29 -1.05,0.69 -1.44,1.22c-0.39,0.53 -0.67,1.18 -0.85,1.94c-0.18,0.77 -0.24,1.65 -0.18,2.64c0.12,2.1 0.65,3.64 1.58,4.61c0.93,0.96 2.23,1.4 3.91,1.3c0.49,-0.03 1.01,-0.12 1.56,-0.28c0.47,-0.13 0.99,-0.33 1.59,-0.56c0.31,-0.12 0.4,0.11 0.4,0.11l0.09,0.24c0,0 0.1,0.28 -0.12,0.44c-0.49,0.34 -1.08,0.63 -1.75,0.9c-0.78,0.3 -1.66,0.49 -2.66,0.55c-0.96,0.06 -1.86,-0.02 -2.71,-0.23c-0.85,-0.21 -1.6,-0.58 -2.25,-1.11c-0.65,-0.53 -1.18,-1.25 -1.59,-2.13c-0.41,-0.89 -0.65,-1.99 -0.73,-3.29c-0.08,-1.32 0.05,-2.46 0.38,-3.43c0.33,-0.97 0.82,-1.79 1.47,-2.45c0.65,-0.66 1.43,-1.16 2.35,-1.52c0.92,-0.35 1.93,-0.57 3.04,-0.63c0.75,-0.05 1.46,-0.02 2.12,0.09c0.46,0.07 0.9,0.15 1.32,0.24c0.58,0.13 0.55,0.6 0.55,0.6l-0.11,1.96c0,0 -0.03,0.43 -0.4,0.46c-0.33,0.02 -0.52,0.03 -0.52,0.03s-0.27,0.02 -0.42,-0.44z" class="st1"/>
      <path id="svg_37" fill="#FFFFFF" d="m159.24998,215.955c-0.24,-0.42 -0.26,-0.5 -0.42,-0.8c-0.2,-0.37 -0.39,-0.45 -0.88,-0.51c-0.19,-0.03 -0.4,-0.02 -0.61,-0.02c-0.34,0.01 -0.7,0.07 -1.08,0.17c-0.7,0.19 -1.3,0.49 -1.8,0.89c-0.5,0.4 -0.88,0.89 -1.15,1.49c-0.27,0.6 -0.41,1.29 -0.42,2.08c-0.02,0.79 0.11,1.66 0.37,2.62c0.56,2.03 1.4,3.42 2.51,4.17c1.11,0.75 2.48,0.9 4.1,0.45c0.47,-0.13 0.96,-0.33 1.46,-0.59c0.43,-0.23 0.9,-0.53 1.44,-0.88c0.28,-0.18 0.42,0.02 0.42,0.02l0.14,0.22c0,0 0.16,0.25 -0.02,0.45c-0.41,0.43 -0.92,0.84 -1.52,1.24c-0.7,0.47 -1.52,0.83 -2.49,1.1c-0.92,0.25 -1.82,0.37 -2.69,0.34c-0.87,-0.03 -1.68,-0.23 -2.43,-0.61c-0.75,-0.39 -1.41,-0.97 -2,-1.75c-0.59,-0.78 -1.06,-1.81 -1.4,-3.06c-0.35,-1.27 -0.47,-2.42 -0.35,-3.44c0.12,-1.02 0.43,-1.92 0.92,-2.7c0.49,-0.78 1.15,-1.44 1.98,-1.98c0.82,-0.53 1.77,-0.95 2.84,-1.25c0.72,-0.2 1.42,-0.32 2.09,-0.36c0.47,-0.03 0.92,-0.04 1.34,-0.04c0.59,0 0.66,0.47 0.66,0.47l0.31,1.94c0,0 0.06,0.43 -0.3,0.53c-0.32,0.09 -0.51,0.14 -0.51,0.14s-0.27,0.08 -0.51,-0.33z" class="st1"/>
      <path id="svg_38" fill="#FFFFFF" d="m176.93998,212.485l-6.31,-2.86c-0.13,-0.06 -0.35,-0.07 -0.49,-0.03l-0.95,0.29c-0.14,0.04 -0.31,-0.02 -0.38,-0.15l-0.17,-0.29c-0.07,-0.13 -0.03,-0.28 0.1,-0.36l4.54,-2.58c0.12,-0.07 0.28,-0.03 0.36,0.09l0.17,0.3c0.07,0.12 0.04,0.3 -0.06,0.4l-0.56,0.52c-0.11,0.1 -0.09,0.23 0.04,0.29l4.5,2.14l0.55,-5.02c0.02,-0.14 -0.08,-0.23 -0.22,-0.18l-0.79,0.25c-0.14,0.04 -0.31,-0.02 -0.38,-0.15l-0.17,-0.29c-0.07,-0.13 -0.03,-0.29 0.1,-0.36l3.6,-2.05c0.12,-0.07 0.28,-0.03 0.35,0.1l0.17,0.29c0.07,0.12 0.04,0.3 -0.07,0.4l-0.82,0.72c-0.11,0.09 -0.21,0.29 -0.22,0.43l-0.7,6.39l6.99,3.25c0.13,0.06 0.35,0.07 0.49,0.03l0.97,-0.3c0.14,-0.04 0.31,0.02 0.38,0.15l0.17,0.29c0.07,0.12 0.03,0.28 -0.1,0.35l-4.56,2.6c-0.13,0.07 -0.28,0.03 -0.35,-0.1l-0.17,-0.29c-0.07,-0.13 -0.04,-0.31 0.07,-0.4l0.61,-0.55c0.11,-0.1 0.09,-0.23 -0.04,-0.29l-5.25,-2.52l-0.64,5.88c-0.02,0.14 0.08,0.22 0.22,0.18l0.75,-0.23c0.14,-0.04 0.31,0.02 0.38,0.15l0.17,0.29c0.07,0.12 0.03,0.28 -0.1,0.35l-3.62,2.06c-0.12,0.07 -0.28,0.03 -0.35,-0.1l-0.17,-0.29c-0.07,-0.13 -0.04,-0.3 0.07,-0.4l0.82,-0.72c0.11,-0.09 0.21,-0.29 0.23,-0.43l0.84,-7.25z" class="st1"/>
      <path id="svg_39" fill="#FFFFFF" d="m192.57998,193.285c0.09,0.11 0.1,0.29 0.01,0.4l-0.68,0.88c-0.09,0.11 -0.08,0.3 0.01,0.4l7.57,8.58c0.09,0.11 0.27,0.14 0.4,0.06l0.95,-0.56c0.12,-0.07 0.3,-0.05 0.4,0.06l0.22,0.25c0.09,0.11 0.08,0.27 -0.02,0.37l-3.89,3.43c-0.11,0.09 -0.27,0.09 -0.37,-0.02l-0.22,-0.25c-0.1,-0.11 -0.1,-0.29 -0.01,-0.4l0.68,-0.88c0.09,-0.11 0.08,-0.29 -0.01,-0.4l-7.57,-8.58c-0.09,-0.11 -0.27,-0.14 -0.4,-0.06l-0.95,0.56c-0.13,0.07 -0.3,0.04 -0.4,-0.06l-0.22,-0.25c-0.09,-0.11 -0.08,-0.27 0.02,-0.37l3.89,-3.43c0.11,-0.1 0.27,-0.08 0.37,0.02l0.22,0.25z" class="st1"/>
     </g>
     <g id="svg_40">
      <path id="svg_41" fill="#FFFFFF" d="m63.57998,58.885c0.14,0.02 0.34,-0.04 0.43,-0.14l2.16,-2.27c0.1,-0.11 0.09,-0.27 -0.01,-0.37l-0.24,-0.23c-0.11,-0.1 -0.29,-0.11 -0.4,-0.03l-0.82,0.57c-0.12,0.08 -0.33,0.13 -0.47,0.11l-6.46,-1.05c-0.14,-0.02 -0.21,-0.15 -0.15,-0.28c0,0 0.79,-1.7 0.76,-2.59c-0.03,-0.89 -0.43,-1.69 -1.19,-2.42c-0.54,-0.52 -1.09,-0.82 -1.64,-0.9c-0.55,-0.08 -1.09,-0.02 -1.62,0.17c-0.53,0.19 -1.03,0.49 -1.52,0.88c-0.49,0.39 -1.18,1.07 -1.18,1.07c-0.1,0.1 -0.27,0.27 -0.37,0.37l-3.8,3.99c-0.1,0.11 -0.09,0.27 0.01,0.37l0.24,0.23c0.1,0.1 0.28,0.11 0.4,0.03l0.91,-0.66c0.12,-0.08 0.3,-0.07 0.4,0.03l8.31,7.91c0.1,0.1 0.12,0.28 0.05,0.4l-0.61,0.94c-0.08,0.12 -0.06,0.3 0.05,0.4l0.25,0.23c0.1,0.1 0.27,0.09 0.37,-0.01l3.56,-3.74c0.1,-0.1 0.09,-0.27 -0.01,-0.37l-0.25,-0.24c-0.1,-0.1 -0.28,-0.11 -0.4,-0.03l-0.9,0.64c-0.12,0.08 -0.3,0.07 -0.4,-0.03l-3.83,-3.64l0.57,-0.6c0.1,-0.1 0.3,-0.17 0.44,-0.14l7.36,1.4zm-8.83,-1.45c-0.1,0.11 -0.17,0.17 -0.17,0.17l-4.13,-3.91l0.74,-0.77c0.1,-0.11 0.26,-0.27 0.37,-0.37c0,0 0.45,-0.44 0.77,-0.68c0.32,-0.23 0.64,-0.39 0.97,-0.46c0.33,-0.07 0.67,-0.05 1.02,0.07c0.35,0.12 0.71,0.36 1.09,0.71c0.82,0.78 1.21,1.54 1.16,2.28c-0.04,0.74 -0.98,2.02 -0.98,2.02c-0.08,0.12 -0.24,0.3 -0.33,0.4l-0.51,0.54z" class="st1"/>
     </g>
    </g>
   </g>
   <g id="Outline">
    <g id="svg_42">
     <path id="svg_43" d="m298.82999,66.415l0,-1.22l22.78,0l0,1.22c-6.59,0.82 -6.73,1.63 -6.73,8.77l0,19.65c0,10.67 3.6,16.66 12.85,16.66c10,0 13.4,-7 13.6,-17.2l0,-19.17c0,-7 -0.14,-7.89 -6.73,-8.7l0,-1.22l16.66,0l0,1.22c-6.6,0.82 -6.73,1.7 -6.73,8.7l0,19.04c0,14.75 -6.87,21.21 -19.04,21.21c-13.53,0 -19.92,-7 -19.92,-19.58l0,-20.6c-0.01,-7.01 -0.15,-7.96 -6.74,-8.78z"/>
     <path id="svg_44" d="m389.19999,66.415l0,-1.22l16.66,0l0,1.22c-6.6,0.82 -6.73,1.7 -6.73,8.7l0,39.37l-5.71,0l-28.96,-37.46l0,27.54c0,7 0.14,7.89 6.73,8.7l0,1.22l-16.66,0l0,-1.22c6.6,-0.82 6.73,-1.7 6.73,-8.7l0,-31.69l-1.16,-1.5c-2.38,-3.13 -3.67,-4.42 -5.58,-5.17l0,-1.02l12.65,0l28.76,36.99l0,-27.06c0,-7 -0.14,-7.88 -6.73,-8.7z"/>
     <path id="svg_45" d="m426.04999,104.565c0,7 0.14,7.89 6.73,8.7l0,1.22l-22.78,0l0,-1.22c6.6,-0.82 6.73,-1.7 6.73,-8.7l0,-29.44c0,-7 -0.14,-7.89 -6.73,-8.7l0,-1.22l22.78,0l0,1.22c-6.6,0.82 -6.73,1.7 -6.73,8.7l0,29.44z"/>
     <path id="svg_46" d="m443.25999,73.075c-1.9,-4.96 -2.72,-6.12 -6.94,-6.66l0,-1.22l21.01,0l0,1.22c-4.28,0.54 -5.58,1.77 -4.35,5.17l11.97,32.7l8.29,-24c4.42,-12.78 2.52,-13.33 -2.72,-13.87l0,-1.22l15.71,0l0,1.22c-4.55,0.54 -5.23,1.43 -8.77,11.56l-12.85,36.51l-5.51,0l-15.84,-41.41z"/>
     <path id="svg_47" d="m514.98999,114.485l-25.22,0l0,-1.22c6.59,-0.82 6.73,-1.7 6.73,-8.7l0,-29.44c0,-7 -0.14,-7.89 -6.73,-8.7l0,-1.22l24.54,0c4.69,0 10.74,0 16.05,-0.2l1.63,16.25l-1.36,0c-3.4,-11.49 -8.02,-13.6 -21.21,-13.6l-3.6,0l0,19.92l7.96,0c3.88,0 6.32,-1.9 7,-7.62l1.22,0l0,18.22l-1.22,0c-0.68,-5.71 -3.13,-7.62 -7,-7.62l-7.96,0l0,18.63c0,2.38 0.48,2.92 3.47,2.92l2.58,0c12.38,0 16.73,-2.79 20.4,-13.8l1.29,0l-2.72,16.25c-5.44,-0.07 -11.02,-0.07 -15.85,-0.07z"/>
     <path id="svg_48" d="m539.87999,113.265c6.59,-0.82 6.73,-1.7 6.73,-8.7l0,-29.44c0,-7 -0.14,-7.89 -6.73,-8.7l0,-1.22l8.7,0c3.33,0 10.2,-0.07 12.31,-0.07c12.58,0 22.3,3.4 22.3,12.99c0,6.6 -4.96,10.47 -12.31,12.24l10.54,16.32c3.13,4.83 4.15,6.05 8.91,6.6l0,1.22l-15.23,0c-1.29,-2.52 -3.4,-6.26 -5.64,-9.93l-2.92,-4.56c-2.86,-4.49 -4.35,-6.8 -5.71,-8.64l-4.9,0l0,13.19c0,7 0.14,7.89 7.41,8.7l0,1.22l-23.46,0l0,-1.22zm20.61,-45.69l-4.56,0l0,21.35l4.56,0c7.82,0 12.38,-2.72 12.38,-10.67s-4.56,-10.68 -12.38,-10.68z"/>
     <path id="svg_49" d="m595.63999,111.695l0,-16.59l1.36,0c1.9,12.65 6.93,17.75 15.03,17.75c5.98,0 10.95,-2.92 10.95,-9.04c0,-4.62 -3.67,-7 -9.11,-9.59l-6.05,-2.86c-7.21,-3.4 -11.76,-7.89 -11.76,-14.48c0,-7.82 7.41,-13.26 16.93,-13.26c4.9,0 11.29,1.36 14.62,3.4l0,13.94l-1.36,0c-1.9,-9.72 -6.6,-14.82 -13.33,-14.82c-5.51,0 -9.38,2.58 -9.38,7.34c0,4.69 3.2,6.87 6.8,8.57l7.21,3.4c7.55,3.54 13.19,7.28 13.19,14.69c0,8.91 -8.5,15.23 -18.7,15.23c-6.67,0 -12.45,-1.57 -16.4,-3.68z"/>
     <path id="svg_50" d="m653.23999,104.565c0,7 0.14,7.89 6.73,8.7l0,1.22l-22.78,0l0,-1.22c6.59,-0.82 6.73,-1.7 6.73,-8.7l0,-29.44c0,-7 -0.14,-7.89 -6.73,-8.7l0,-1.22l22.78,0l0,1.22c-6.6,0.82 -6.73,1.7 -6.73,8.7l0,29.44z"/>
     <path id="svg_51" d="m677.64999,113.265c7.21,-0.82 7.48,-1.9 7.48,-8.7l0,-37.12l-1.7,0c-9.52,0 -13.53,4.83 -16.93,15.71l-1.36,0l2.04,-18.15c5.24,0.2 11.56,0.2 16.25,0.2l12.65,0c4.69,0 11.01,0 16.32,-0.2l2.04,18.15l-1.43,0c-3.33,-10.88 -7.34,-15.71 -16.86,-15.71l-1.7,0l0,37.12c0,6.8 0.27,7.89 7.48,8.7l0,1.22l-24.27,0l0,-1.22l-0.01,0z"/>
     <path id="svg_52" d="m753.12999,113.265l0,1.22l-24.27,0l0,-1.22c7.21,-0.82 7.48,-1.9 7.48,-8.7l0,-9.45l-12.44,-22.37c-2.65,-4.9 -3.6,-5.78 -6.73,-6.32l0,-1.22l21.01,0l0,1.22c-4.28,0.54 -5.85,1.7 -4.21,4.9l10.47,19.72l8.36,-14.82c4.42,-7.68 3.26,-9.31 -1.63,-9.79l0,-1.22l15.16,0l0,1.22c-3.67,0.61 -5.3,1.77 -9.32,8.5l-11.35,19.72l0,9.93c-0.01,6.77 0.26,7.86 7.47,8.68z"/>
     <path id="svg_53" d="m326.97999,134.835c13.33,0 25.9,8.98 25.9,25.77s-12.58,25.77 -25.9,25.77c-13.33,0 -25.91,-8.98 -25.91,-25.77s12.58,-25.77 25.91,-25.77zm0,2.51c-9.38,0 -15.5,8.91 -15.5,23.25s6.12,23.25 15.5,23.25c9.38,0 15.5,-8.91 15.5,-23.25s-6.12,-23.25 -15.5,-23.25z"/>
     <path id="svg_54" d="m359.40999,184.265c6.6,-0.82 6.73,-1.7 6.73,-8.7l0,-29.44c0,-7 -0.14,-7.89 -6.73,-8.7l0,-1.22l25.91,0c4.69,0 10.74,0 16.05,-0.2l1.63,16.25l-1.36,0c-3.4,-11.49 -8.02,-13.6 -21.21,-13.6l-4.96,0l0,19.92l7.96,0c3.88,0 6.32,-1.9 7,-7.62l1.22,0l0,18.22l-1.22,0c-0.68,-5.71 -3.13,-7.62 -7,-7.62l-7.96,0l0,14.07c0,6.8 0.27,7.82 7.48,8.64l0,1.22l-23.53,0l0,-1.22l-0.01,0z"/>
     <path id="svg_55" d="m451.68999,134.835c13.33,0 25.9,8.98 25.9,25.77s-12.58,25.77 -25.9,25.77c-13.33,0 -25.91,-8.98 -25.91,-25.77s12.58,-25.77 25.91,-25.77zm0,2.51c-9.38,0 -15.5,8.91 -15.5,23.25s6.12,23.25 15.5,23.25c9.38,0 15.5,-8.91 15.5,-23.25s-6.12,-23.25 -15.5,-23.25z"/>
     <path id="svg_56" d="m486.63999,182.695l0,-16.59l1.36,0c1.9,12.65 6.93,17.75 15.03,17.75c5.98,0 10.95,-2.92 10.95,-9.04c0,-4.62 -3.67,-7 -9.11,-9.59l-6.05,-2.86c-7.21,-3.4 -11.76,-7.89 -11.76,-14.48c0,-7.82 7.41,-13.26 16.93,-13.26c4.9,0 11.29,1.36 14.62,3.4l0,13.94l-1.36,0c-1.9,-9.72 -6.6,-14.82 -13.33,-14.82c-5.51,0 -9.38,2.58 -9.38,7.34c0,4.69 3.2,6.87 6.8,8.57l7.21,3.4c7.55,3.54 13.19,7.28 13.19,14.69c0,8.91 -8.5,15.23 -18.7,15.23c-6.68,0 -12.46,-1.57 -16.4,-3.68z"/>
     <path id="svg_57" d="m528.18999,184.265c6.59,-0.82 6.73,-1.7 6.73,-8.7l0,-29.44c0,-7 -0.14,-7.89 -6.73,-8.7l0,-1.22l22.78,0l0,1.22c-6.6,0.82 -6.73,1.7 -6.73,8.7l0,34.2c0,2.24 0.68,2.79 2.79,2.79l2.11,0c12.31,0 15.57,-2.99 19.24,-14.62l1.36,0l-2.18,17.07c-3.26,-0.07 -11.22,-0.07 -13.94,-0.07l-25.43,0l0,-1.23z"/>
     <path id="svg_58" d="m600.66999,134.835c13.33,0 25.91,8.98 25.91,25.77s-12.58,25.77 -25.91,25.77s-25.91,-8.98 -25.91,-25.77s12.59,-25.77 25.91,-25.77zm0,2.51c-9.38,0 -15.5,8.91 -15.5,23.25s6.12,23.25 15.5,23.25c9.38,0 15.5,-8.91 15.5,-23.25s-6.11,-23.25 -15.5,-23.25z"/>
    </g>
   </g>
  </g>
 </g>
</svg>